<?xml version="1.0" encoding="utf-8"?>
<!-- Generator: Adobe Illustrator 27.0.0, SVG Export Plug-In . SVG Version: 6.00 Build 0)  -->
<svg version="1.2" baseProfile="tiny" id="Layer_1" xmlns="http://www.w3.org/2000/svg" xmlns:xlink="http://www.w3.org/1999/xlink"
	 x="0px" y="0px" viewBox="0 0 56.1 115.5" overflow="visible" xml:space="preserve">
<circle cx="3.2" cy="3.2" r="3.2"/>
<circle cx="43.7" cy="3.2" r="3.2"/>
<circle cx="33.6" cy="3.2" r="3.2"/>
<circle cx="23.5" cy="3.2" r="3.2"/>
<circle cx="13.4" cy="3.2" r="3.2"/>
<circle cx="53.8" cy="3.2" r="3.2"/>
<circle cx="-1.8" cy="11.5" r="3.2"/>
<circle cx="38.7" cy="11.5" r="3.2"/>
<circle cx="28.5" cy="11.5" r="3.2"/>
<circle cx="18.4" cy="11.5" r="3.2"/>
<circle cx="8.3" cy="11.5" r="3.2"/>
<circle cx="48.8" cy="11.5" r="3.2"/>
<circle cx="3.2" cy="20.9" r="3.2"/>
<circle cx="43.7" cy="20.9" r="3.2"/>
<circle cx="33.6" cy="20.9" r="3.2"/>
<circle cx="23.5" cy="20.9" r="3.2"/>
<circle cx="13.4" cy="20.9" r="3.2"/>
<circle cx="53.8" cy="20.9" r="3.2"/>
<circle cx="58.9" cy="12.1" r="3.2"/>
<circle cx="-2.3" cy="29.7" r="3.2"/>
<circle cx="38.2" cy="29.7" r="3.2"/>
<circle cx="28" cy="29.7" r="3.2"/>
<circle cx="17.9" cy="29.7" r="3.2"/>
<circle cx="7.8" cy="29.7" r="3.2"/>
<circle cx="48.3" cy="29.7" r="3.2"/>
<circle cx="58.4" cy="30.3" r="3.2"/>
<circle cx="3" cy="39.5" r="3.2"/>
<circle cx="43.5" cy="39.5" r="3.2"/>
<circle cx="33.4" cy="39.5" r="3.2"/>
<circle cx="23.2" cy="39.5" r="3.2"/>
<circle cx="13.1" cy="39.5" r="3.2"/>
<circle cx="53.6" cy="39.5" r="3.2"/>
<circle cx="-2.1" cy="47.8" r="3.2"/>
<circle cx="38.4" cy="47.8" r="3.2"/>
<circle cx="28.3" cy="47.8" r="3.2"/>
<circle cx="18.2" cy="47.8" r="3.2"/>
<circle cx="8.1" cy="47.8" r="3.2"/>
<circle cx="48.5" cy="47.8" r="3.2"/>
<circle cx="3" cy="57.2" r="3.2"/>
<circle cx="43.5" cy="57.2" r="3.2"/>
<circle cx="33.4" cy="57.2" r="3.2"/>
<circle cx="23.2" cy="57.2" r="3.2"/>
<circle cx="13.1" cy="57.2" r="3.2"/>
<circle cx="53.6" cy="57.2" r="3.2"/>
<circle cx="58.7" cy="48.4" r="3.2"/>
<circle cx="-2.6" cy="66" r="3.2"/>
<circle cx="37.9" cy="66" r="3.2"/>
<circle cx="27.8" cy="66" r="3.2"/>
<circle cx="17.7" cy="66" r="3.2"/>
<circle cx="7.6" cy="66" r="3.2"/>
<circle cx="48" cy="66" r="3.2"/>
<circle cx="58.2" cy="66.6" r="3.2"/>
<circle cx="1.8" cy="76" r="3.2"/>
<circle cx="42.3" cy="76" r="3.2"/>
<circle cx="32.2" cy="76" r="3.2"/>
<circle cx="22.1" cy="76" r="3.2"/>
<circle cx="11.9" cy="76" r="3.2"/>
<circle cx="52.4" cy="76" r="3.2"/>
<circle cx="-3.2" cy="84.3" r="3.2"/>
<circle cx="37.3" cy="84.3" r="3.2"/>
<circle cx="27.1" cy="84.3" r="3.2"/>
<circle cx="17" cy="84.3" r="3.2"/>
<circle cx="6.9" cy="84.3" r="3.2"/>
<circle cx="47.4" cy="84.3" r="3.2"/>
<circle cx="1.8" cy="93.7" r="3.2"/>
<circle cx="42.3" cy="93.7" r="3.2"/>
<circle cx="32.2" cy="93.7" r="3.2"/>
<circle cx="22.1" cy="93.7" r="3.2"/>
<circle cx="11.9" cy="93.7" r="3.2"/>
<circle cx="52.4" cy="93.7" r="3.2"/>
<circle cx="57.5" cy="84.9" r="3.2"/>
<circle cx="-3.7" cy="102.6" r="3.2"/>
<circle cx="36.8" cy="102.6" r="3.2"/>
<circle cx="26.6" cy="102.6" r="3.2"/>
<circle cx="16.5" cy="102.6" r="3.2"/>
<circle cx="6.4" cy="102.6" r="3.2"/>
<circle cx="46.9" cy="102.6" r="3.2"/>
<circle cx="57" cy="103.1" r="3.2"/>
<circle cx="2.5" cy="112.6" r="3.2"/>
<circle cx="43" cy="112.6" r="3.2"/>
<circle cx="32.9" cy="112.6" r="3.2"/>
<circle cx="22.7" cy="112.6" r="3.2"/>
<circle cx="12.6" cy="112.6" r="3.2"/>
<circle cx="53.1" cy="112.6" r="3.2"/>
</svg>
