<?xml version="1.0" encoding="utf-8"?>
<!-- Generator: Adobe Illustrator 25.4.1, SVG Export Plug-In . SVG Version: 6.00 Build 0)  -->
<svg version="1.1" id="Capa_1" xmlns="http://www.w3.org/2000/svg" xmlns:xlink="http://www.w3.org/1999/xlink" x="0px" y="0px"
	 viewBox="0 0 465.5 500" style="enable-background:new 0 0 465.5 500;" xml:space="preserve">
<style type="text/css">
	.st0{fill:#DD0932;}
	.st1{fill:#C31532;}
	.st2{fill:#FFFFFF;}
</style>
<g>
	<polygon class="st0" points="232.8,0 232.8,0 232.8,0 0,83 35.5,390.8 232.8,500 232.8,500 232.8,500 430,390.8 465.5,83 	"/>
	<polygon class="st1" points="232.8,0 232.8,55.5 232.8,55.2 232.8,308.5 232.8,308.5 232.8,500 232.8,500 430,390.8 465.5,83 	"/>
	<path class="st2" d="M232.8,55.2L87.3,381.5l0,0h54.2l0,0l29.2-73h123.5l29.2,73l0,0h54.2l0,0L232.8,55.2L232.8,55.2L232.8,55.2
		L232.8,55.2L232.8,55.2z M275.2,263.5h-85l42.5-102.2L275.2,263.5z"/>
</g>
</svg>
