<?xml version="1.0" encoding="utf-8"?>
<!-- Generator: Adobe Illustrator 25.4.1, SVG Export Plug-In . SVG Version: 6.00 Build 0)  -->
<svg version="1.1" id="Capa_1" xmlns="http://www.w3.org/2000/svg" xmlns:xlink="http://www.w3.org/1999/xlink" x="0px" y="0px"
	 viewBox="0 0 416.2 500" style="enable-background:new 0 0 416.2 500;" xml:space="preserve">
<style type="text/css">
	.st0{fill:#030405;}
	.st1{fill:#66BA81;}
	.st2{fill:#8CC47E;}
	.st3{fill:#FBD2BD;}
	.st4{fill:#8DC57E;}
	.st5{fill:#B19AC9;}
	.st6{fill:#8D89C2;}
	.st7{fill:#F8BC9D;}
	.st8{fill:#FCFCFC;}
	.st9{fill:#F9EFCD;}
	.st10{fill:#FBFBFB;}
	.st11{fill:#EDA1AA;}
	.st12{fill:#050606;}
	.st13{fill:#68BA81;}
</style>
<g>
	<path class="st0" d="M297.9,492.9c-1.1,5.2-4.4,7-9.5,7c-61.8-0.1-123.6,0-185.4-0.1c-23.5,0-39.1-20.3-33.1-43.1
		c6.7-25.6,19.6-47.6,38.3-66.2c1.1-1.1,2.4-2.1,4-3.4c-11.3-8.1-21.3-16.9-30-27.1c-7.6-9-14.1-18.6-19.3-29.1
		c-1.1-2.2-2.3-2.9-4.7-3c-33.5-0.6-58-25.6-58.1-59.2c-0.1-19.8,0-39.7,0-59.5c0-20.5,17.1-30.9,35.6-21.9c1,0.5,2.3,0.8,3,1.5
		c7.1,7,13.8,1.8,20.6-0.6c1.8-0.6,1.6-2.4,2-3.7c14.2-43.6,38.1-81.1,69.9-113.9c3.5-3.6,7.1-4.9,11.6-2c3.7,5.1,3.5,7.5-1.2,12.3
		c-19.2,19.5-35.2,41.3-48.1,65.3c-6.4,11.8-12.1,24-16.2,36.9c1.9,0.9,3.5,0.2,5-0.1c7.8-1.5,15.6-3.1,23.4-4.4
		c22.9-3.9,46.1-5.9,69.3-7.2c1.8,0,3.6,0,5.3-0.1c45.1-1.6,90,0.2,134.6,8c6.9,1.2,13.8,2.6,21.3,4c-1.5-3.7-3.8-6.3-5.8-8.9
		c-11.2-14.7-23.6-28.6-33.9-44.1c-11-16.7-18.8-34.5-20.5-54.6c-1.5-17.2,1.8-33.6,7.7-49.7c3.1-8.5-0.3-12.4-9.3-11.1
		c-5.5,0.8-11,1.5-16.4,2.5c-23.9,4.7-46.6,12.7-67.5,25.5c-6.8,3.4-13.1,7.7-19.1,12.3c-4.3,3.3-8.3,4-12.8,0.9
		c-2.4-6.8-1.8-8.5,4-12.7c31.6-23.1,66.8-37.3,105.6-42.6c0.9-0.1,2,0.3,2.4-1c4.2,0,8.5,0,12.7,0c0.3,0.3,0.6,0.8,1,0.9
		c12.7,4.3,18.5,15.4,13.9,28.1c-5.3,15-9,30.1-7.6,46.2c1.6,17.3,8.3,32.5,17.8,46.8c9.1,13.9,20.2,26.3,30.4,39.3
		c6,7.7,12,15.4,16.2,24.2c1.6,3.3,4.9,2.8,7,4.5c4.9,4.1,9.1,2.4,13.9-0.4c6.6-3.8,13.4-7.2,21.6-5.4c10.4,2.3,18.4,11,18.5,21.6
		c0.2,22.8,0.5,45.5-0.1,68.3c-0.8,28.9-27,53.4-56.6,53.7c-3.3,0-5.1,0.9-6.6,4c-10.6,21.1-25.9,38.5-45,52.4
		c-3,2.2-3.2,3.1-0.4,5.8c20,19.5,33.6,42.8,39.6,70.2c2.9,13.3-3.4,27.2-15,34.4c-6.1,3.8-9.4,3.2-13.4-2.8
		c-0.6-4.4,1.5-7.3,5.2-9.6c7.7-4.8,10.6-12.2,8.4-21c-5.7-23.3-17.4-43.3-34.4-60.1c-2.1-2.1-4.5-4.1-6.7-6.1
		c-1,1.2-0.5,1.9-0.4,2.7c3.9,16.3,5.3,32.7,3.4,49.3c-1.4,12.8-13,20.6-25.4,16.9c-6.5-2-12.8-4.8-18.8-8
		c-15.1-8-28.4-18.3-39.8-31c-1-1.1-1.7-3.1-3.6-0.8c-11.4,13.5-25.5,23.5-40.6,32.3c-6.1,2.6-12,5.6-18.4,7.5
		c-11.6,3.4-23.3-3.4-25.2-14.8c-0.6-3.5-0.8-7.1-1-10.7c-0.7-14.5,1-28.8,4.6-42.7c-1.3-0.5-1.9,0.1-2.5,0.6
		c-20.2,18.1-33.8,40.1-39.9,66.6c-2.5,10.9,6.3,21.9,17.8,22c25.8,0.2,51.7,0,77.5-0.1c1.8,0.1,3.6,0.2,5.3,0.2
		c34.7,0,69.4,0,104.1,0C294.7,485.2,296.5,486.7,297.9,492.9z M159.4,409.8c-5.7-2.2-11.5-4.2-17.2-6.5c-2.2-0.9-3-0.4-3.5,2
		c-2.7,13.1-3.8,26.3-2.1,39.6c0.6,4.8,2.9,6.4,7.3,4.9c6.4-2.2,12.8-4.5,18.3-8.6c12.2-6.2,22.5-14.8,32.2-25.3
		C182,415,170.7,412.4,159.4,409.8z M194.4,214c1.8,0.1,3.6,0.2,5.3,0.2c21.1-0.2,42.3,0.4,63.3,2.2c28.1,2.3,55.7,7,83,13.8
		c4.6,1.1,9.1,0.7,12.9-2.5c4.6-3.8,6.3-8.7,5.1-14.4c-1.3-6.2-5.6-9.6-11.7-11.1c-33.8-8.3-68.1-13.7-102.9-15.5
		c-19-1-38-1.7-57-0.8c-1.1-0.1-2.3-0.2-3.4-0.2c-24,0.9-48,2.4-71.9,5.9c-18,2.7-35.8,6.3-53.5,10.6c-6.9,1.7-11.3,6.3-12,12.5
		c-1.1,10.6,7.7,18,18.7,15.3c26.7-6.5,53.7-11.1,81.1-13.5C165.9,215.2,180.2,215.2,194.4,214z M208.3,228.8
		c-30.3,0.1-60.4,1.8-90.3,6.5c-15.6,2.5-30.9,6-46.3,9.3c-4.2,0.9-6.6,1.4-7.3,6.5c-5.6,40,6,74.6,33.2,103.9
		c49,52.8,134.2,62.5,195,21.8c42.2-28.3,63.9-67.6,59.9-119.4c-0.3-3.9-0.3-8.3-2.3-11.3c-1.3-1.9-5.9-1.4-9-2.1
		C297.5,233.1,253.1,228.7,208.3,228.8z M401.4,240.7C401.4,240.7,401.4,240.7,401.4,240.7c0.1-10.9,0.1-21.8,0-32.7
		c-0.1-7.7-6-11.3-13-8.2c-2.8,1.3-5.4,2.9-8.3,4.1c-2.5,1-2.7,2.5-2.1,4.9c3,12.4-0.4,22.8-10.5,30.7c-1.9,1.5-2.7,2.8-2.2,5.2
		c4.3,21.9,3,43.6-3.5,65c-0.9,2.9-0.7,3.7,2.7,3.2c20.6-3,36.5-20.6,36.9-41.5C401.6,261.2,401.4,250.9,401.4,240.7z M14.7,240.2
		C14.7,240.2,14.7,240.2,14.7,240.2c0,10.2-0.1,20.5,0.1,30.7c0.4,21.1,15.7,38.4,36.5,41.9c3.9,0.6,4-0.2,3-3.6
		c-6.3-21-7.7-42.4-3.5-64c0.5-2.5,0.1-4.1-2.1-5.7c-8.7-6.4-12.1-15.2-11.6-25.9c0.1-2.9,3.1-6,0.5-8.5c-2.2-2-5.3-3-8.1-4.4
		c-0.4-0.2-0.9-0.4-1.3-0.6c-7.5-3.5-13.4,0.2-13.4,8.5C14.6,219.1,14.7,229.6,14.7,240.2z M221.6,416
		c14.9,15.6,31.4,27.3,51.1,33.9c4.1,1.4,6.3-0.4,6.9-4.9c1.4-11.4,0.8-22.7-1.1-33.9c-1.5-8.8-1.5-8.9-9.4-5.8
		C254.1,411.1,238.5,414.3,221.6,416z"/>
	<path class="st1" d="M174.9,171.5c-23.2,1.3-46.3,3.2-69.3,7.2c-7.8,1.3-15.6,2.9-23.4,4.4c-1.6,0.3-3.1,1-5,0.1
		c4.2-12.8,9.9-25,16.2-36.9c12.9-24.1,29-45.9,48.1-65.3c4.7-4.7,4.8-7.1,1.2-12.3c4.3-2.3,7.2-6.3,11.2-9.1
		c1.6-1.1,2.7-2.9,4.7-3.2c4.5,3.1,8.5,2.4,12.8-0.9c6-4.7,12.3-8.9,19.1-12.3c-1.6,3.7-3.3,7.4-4.9,11.1C179,69.2,175.6,85,173,101
		c-1.6,9.8-1.7,19.7-1.6,29.5C171.5,144.2,172.6,158,174.9,171.5z"/>
	<path class="st2" d="M165.9,456.6c15.1-8.7,29.3-18.8,40.6-32.3c1.9-2.3,2.6-0.3,3.6,0.8c11.4,12.8,24.7,23,39.8,31
		c6,3.2,12.3,6,18.8,8c12.4,3.7,23.9-4.1,25.4-16.9c1.9-16.7,0.5-33.1-3.4-49.3c-0.2-0.8-0.7-1.5,0.4-2.7c2.2,2,4.6,4,6.7,6.1
		c17,16.9,28.7,36.8,34.4,60.1c2.2,8.8-0.8,16.2-8.4,21c-3.7,2.3-5.8,5.1-5.2,9.6c-6.8,1.4-13.8,0.5-20.6,1
		c-1.4-6.2-3.2-7.7-9.7-7.7c-34.7,0-69.4,0-104.1,0c-1.8,0-3.6-0.1-5.3-0.2C172.9,476.3,169.4,466.4,165.9,456.6z"/>
	<path class="st3" d="M208.3,228.8c44.9-0.1,89.2,4.2,132.8,15.2c3.1,0.8,7.8,0.3,9,2.1c2,2.9,2,7.4,2.3,11.3
		c4,51.8-17.7,91.2-59.9,119.4c-60.7,40.7-145.9,31-195-21.8c-27.2-29.3-38.7-63.9-33.2-103.9c0.7-5.1,3.1-5.6,7.3-6.5
		c15.4-3.3,30.7-6.8,46.3-9.3C147.9,230.6,178,228.9,208.3,228.8z M135.1,279.9c2.5-1.7,4.4-3.8,4.5-7.1c0.1-4.9,0.2-9.7,0-14.6
		c-0.2-4.5-3.5-7.4-7.6-7.3c-4,0.2-6.9,3.2-7,7.8c-0.1,4.9-0.1,9.7-0.2,14.6c-1.1-0.1-2.3-0.2-3.4-0.3c-15-2.2-28.7-0.4-39.6,11.7
		c-7.7,8.5-7.6,22.4-0.1,31.1c11.9,13.8,32.7,15.4,47,9.1c11.6-5.2,19.1-12.8,17.7-27.6C145.8,289.7,142.5,283.4,135.1,279.9z
		 M281,279.9c-13.5,6.8-15.7,27.8-4.2,38.3c15.3,13.9,43.9,13.3,56.9-1.8c7.5-8.7,8.6-21.2,1.7-30.4c-5-6.7-11.7-10.6-19.6-12.5
		c-8.2-2.1-16.4-1.3-24.6-0.1c0-4.9,0-9.7-0.2-14.6c-0.1-4.5-3-7.6-7-7.8c-4.2-0.2-7.4,3-7.6,7.7c-0.2,4,0.1,8.1-0.1,12.1
		C276.3,274.8,277.7,277.8,281,279.9z M208,289c9.3-0.3,17.6-3.5,24.3-10.4c3.8-3.8,4-8,0.9-11.2c-3-3.1-7.2-2.9-11.2,0.7
		c-9.2,8.3-18.8,8.3-28.1-0.1c-3.9-3.5-8.2-3.7-11.2-0.5c-2.9,3.1-2.7,7.2,0.8,10.8C190.2,285.2,198.4,288.6,208,289z"/>
	<path class="st4" d="M174.9,171.5c-2.4-13.6-3.5-27.3-3.5-41c0-9.8,0-19.7,1.6-29.5c2.6-16,6-31.8,12.6-46.7
		c1.6-3.7,3.3-7.4,4.9-11.1c20.9-12.8,43.6-20.8,67.5-25.5c5.4-1.1,10.9-1.7,16.4-2.5c9-1.4,12.3,2.6,9.3,11.1
		c-5.8,16.1-9.2,32.5-7.7,49.7c1.7,20.1,9.5,37.9,20.5,54.6c10.2,15.5,22.6,29.3,33.9,44.1c2,2.7,4.3,5.2,5.8,8.9
		c-7.4-1.4-14.3-2.8-21.3-4c-44.6-7.9-89.5-9.6-134.6-8C178.5,171.5,176.7,171.5,174.9,171.5z M247.1,124.4c-0.3-2.8-1.6-5-4.3-6.4
		c-3.3-1.6-6-0.6-8.4,1.7c-5.2,5.1-10.4,10.3-15.5,15.5c-3.6,3.7-3.9,7.9-0.8,10.7c3.3,3.1,7.6,2.9,11.2-0.7
		c5-4.9,9.9-9.9,14.9-14.8C245.8,128.8,247,127,247.1,124.4z M220.8,92.9c0,5.7,5.4,9.2,10.4,6.4c5.6-3.1,9.7-8.1,13.6-13
		c2.2-2.9,1.9-6.6-1.2-9.1c-2.7-2.2-6-3.2-8.8-0.6c-4.4,4-8.5,8.4-12.8,12.7C220.9,90.3,220.7,91.5,220.8,92.9z"/>
	<path class="st5" d="M192.5,185.9c19-0.9,38-0.2,57,0.8c34.8,1.8,69.1,7.2,102.9,15.5c6,1.5,10.3,4.9,11.7,11.1
		c1.2,5.7-0.5,10.6-5.1,14.4c-3.9,3.1-8.3,3.6-12.9,2.5c-27.3-6.8-55-11.5-83-13.8c-21.1-1.7-42.2-2.4-63.3-2.2
		c-1.8,0-3.6-0.1-5.3-0.2C191.3,204.8,190.2,195.5,192.5,185.9z"/>
	<path class="st6" d="M192.5,185.9c-2.3,9.5-1.2,18.9,1.9,28c-14.2,1.2-28.5,1.2-42.8,2.5c-27.4,2.5-54.4,7.1-81.1,13.5
		c-11,2.7-19.8-4.7-18.7-15.3c0.6-6.2,5-10.8,12-12.5c17.7-4.3,35.5-7.9,53.5-10.6c23.8-3.6,47.8-5,71.9-5.9
		C190.2,185.7,191.4,185.9,192.5,185.9z"/>
	<path class="st1" d="M165.9,456.6c3.5,9.8,7,19.7,12.9,28.5c-25.8,0-51.7,0.3-77.5,0.1C89.8,485,81,474,83.5,463.1
		c6.1-26.4,19.7-48.5,39.9-66.6c0.6-0.5,1.2-1.2,2.5-0.6c-3.6,14-5.2,28.2-4.6,42.7c0.2,3.6,0.4,7.1,1,10.7
		c1.9,11.4,13.6,18.3,25.2,14.8C153.9,462.2,159.8,459.1,165.9,456.6z"/>
	<path class="st7" d="M401.4,240.7c0,10.2,0.2,20.5,0,30.7c-0.5,20.9-16.3,38.5-36.9,41.5c-3.3,0.5-3.5-0.3-2.7-3.2
		c6.5-21.4,7.9-43,3.5-65c-0.5-2.4,0.3-3.8,2.2-5.2c10.1-7.9,13.5-18.3,10.5-30.7c-0.6-2.4-0.4-3.9,2.1-4.9c2.8-1.2,5.5-2.8,8.3-4.1
		c7-3.2,12.9,0.5,13,8.2C401.5,218.9,401.5,229.8,401.4,240.7C401.4,240.7,401.4,240.7,401.4,240.7z"/>
	<path class="st7" d="M14.7,240.2c0-10.6-0.1-21.1,0-31.7c0.1-8.3,5.9-11.9,13.4-8.5c0.4,0.2,0.9,0.4,1.3,0.6
		c2.7,1.4,5.9,2.4,8.1,4.4c2.6,2.5-0.3,5.6-0.5,8.5c-0.5,10.7,2.9,19.5,11.6,25.9c2.2,1.6,2.6,3.3,2.1,5.7c-4.3,21.6-2.9,43,3.5,64
		c1,3.3,0.9,4.2-3,3.6c-20.8-3.5-36.1-20.8-36.5-41.9C14.6,260.7,14.7,250.4,14.7,240.2C14.7,240.2,14.7,240.2,14.7,240.2z"/>
	<path class="st8" d="M221.6,416c16.9-1.7,32.5-4.9,47.5-10.7c7.9-3.1,7.9-3,9.4,5.8c1.9,11.3,2.5,22.6,1.1,33.9
		c-0.6,4.5-2.8,6.3-6.9,4.9C252.9,443.3,236.5,431.6,221.6,416z"/>
	<path class="st9" d="M162.2,441.3c-5.6,4.1-11.9,6.4-18.3,8.6c-4.4,1.5-6.7-0.2-7.3-4.9c-1.6-13.3-0.5-26.5,2.1-39.6
		c0.5-2.4,1.3-2.9,3.5-2c5.7,2.3,11.5,4.3,17.2,6.5C159.6,420.3,160.9,430.8,162.2,441.3z"/>
	<path class="st10" d="M162.2,441.3c-1.3-10.5-2.6-20.9-2.8-31.5c11.3,2.6,22.6,5.2,35.1,6.2C184.7,426.4,174.4,435.1,162.2,441.3z"
		/>
	<path class="st11" d="M291.3,273.4c8.2-1.2,16.4-2,24.6,0.1c7.9,2,14.6,5.9,19.6,12.5c6.9,9.2,5.7,21.7-1.7,30.4
		c-13,15.1-41.6,15.8-56.9,1.8c-11.5-10.5-9.3-31.4,4.2-38.3C287.3,280.5,289.4,279.2,291.3,273.4z"/>
	<path class="st11" d="M135.1,279.9c7.3,3.4,10.6,9.8,11.4,17.3c1.5,14.8-6.1,22.5-17.7,27.6c-14.3,6.3-35.1,4.7-47-9.1
		c-7.5-8.7-7.7-22.5,0.1-31.1c10.9-12.1,24.6-13.9,39.6-11.7c1.1,0.2,2.2,0.2,3.4,0.3C126.7,279.2,128.8,280.5,135.1,279.9z"/>
	<path class="st12" d="M208,289c-9.6-0.4-17.8-3.7-24.5-10.6c-3.5-3.7-3.7-7.7-0.8-10.8c3-3.2,7.3-3,11.2,0.5
		c9.3,8.4,18.9,8.4,28.1,0.1c3.9-3.6,8.2-3.8,11.2-0.7c3.1,3.2,2.8,7.3-0.9,11.2C225.6,285.4,217.4,288.7,208,289z"/>
	<path class="st12" d="M135.1,279.9c-6.4,0.6-8.4-0.7-10.3-6.5c0-4.9,0-9.7,0.2-14.6c0.1-4.5,3-7.6,7-7.8c4-0.2,7.4,2.8,7.6,7.3
		c0.2,4.8,0.1,9.7,0,14.6C139.6,276.1,137.6,278.2,135.1,279.9z"/>
	<path class="st12" d="M291.3,273.4c-1.9,5.9-3.9,7.2-10.3,6.5c-3.3-2.1-4.7-5.1-4.5-9c0.2-4-0.1-8.1,0.1-12.1
		c0.2-4.8,3.4-7.9,7.6-7.7c4,0.2,6.8,3.2,7,7.8C291.3,263.7,291.2,268.5,291.3,273.4z"/>
	<path class="st13" d="M247.1,124.4c-0.1,2.6-1.4,4.5-3,6.1c-5,4.9-9.9,9.9-14.9,14.8c-3.7,3.6-7.9,3.8-11.2,0.7
		c-3-2.8-2.8-7.1,0.8-10.7c5.1-5.2,10.3-10.4,15.5-15.5c2.4-2.3,5.1-3.3,8.4-1.7C245.5,119.4,246.8,121.6,247.1,124.4z"/>
	<path class="st13" d="M220.8,92.9c-0.1-1.3,0.1-2.6,1.1-3.6c4.2-4.2,8.3-8.6,12.8-12.7c2.9-2.6,6.1-1.7,8.8,0.6
		c3.1,2.6,3.5,6.3,1.2,9.1c-3.9,4.9-8,9.9-13.6,13C226.2,102.1,220.8,98.6,220.8,92.9z"/>
</g>
</svg>
