<?xml version="1.0" encoding="utf-8"?>
<!-- Generator: Adobe Illustrator 25.4.1, SVG Export Plug-In . SVG Version: 6.00 Build 0)  -->
<svg version="1.1" id="Capa_1" xmlns="http://www.w3.org/2000/svg" xmlns:xlink="http://www.w3.org/1999/xlink" x="0px" y="0px"
	 viewBox="0 0 445 500" style="enable-background:new 0 0 445 500;" xml:space="preserve">
<style type="text/css">
	.st0{fill-rule:evenodd;clip-rule:evenodd;fill:#E535AB;}
</style>
<path class="st0" d="M265.2,57.3L368,116.7c3-3.1,6.4-5.8,10.1-8c21.3-12.3,48.5-5,60.9,16.3c12.3,21.3,5,48.5-16.3,60.9
	c-3.7,2.1-7.7,3.7-11.9,4.7v118.8c4.1,1,8.1,2.6,11.7,4.7c21.5,12.4,28.7,39.6,16.3,60.9c-12.3,21.3-39.6,28.6-60.9,16.3
	c-4.1-2.4-7.9-5.4-11-8.9l-102.2,59c1.5,4.5,2.3,9.3,2.3,14c0,24.5-19.9,44.6-44.6,44.6s-44.6-19.9-44.6-44.6
	c0-4.4,0.6-8.6,1.8-12.6L77,383.5c-2.9,3.1-6.3,5.7-10,7.9c-21.5,12.3-48.6,5-60.9-16.3c-12.3-21.3-5-48.5,16.3-60.9
	c3.7-2.1,7.6-3.7,11.7-4.7V190.6c-4.2-1-8.2-2.6-11.9-4.7C1,173.6-6.3,146.3,6,125s39.6-28.6,60.9-16.3c3.7,2.2,7.1,4.8,10.1,8
	l102.8-59.4c-1.2-4.1-1.8-8.4-1.8-12.7c0-24.6,19.9-44.6,44.6-44.6s44.6,19.9,44.6,44.6C267.1,49,266.4,53.3,265.2,57.3L265.2,57.3z
	 M254.5,75.6l103.1,59.5c-3.3,11.6-1.8,24,4.2,34.5c6.3,10.9,16.5,18.1,27.8,21v118.9c-0.6,0.1-1.2,0.3-1.7,0.5L253.3,76.8
	C253.7,76.4,254.1,76,254.5,75.6L254.5,75.6z M191.7,76.8L57.1,309.9c-0.6-0.2-1.2-0.3-1.8-0.5V190.5c11.3-2.8,21.6-10.1,27.8-21
	c6-10.5,7.6-22.9,4.2-34.5l103-59.5C190.9,76,191.3,76.4,191.7,76.8L191.7,76.8z M234.9,87.4l134.6,233.1c-3.1,2.9-5.7,6.3-7.8,10
	c-2.1,3.7-3.7,7.6-4.7,11.7H88c-1-4.1-2.6-8.1-4.7-11.7c-2.1-3.7-4.8-7-7.8-9.9L210.1,87.4c4,1.2,8.2,1.7,12.4,1.7
	C226.8,89.1,231,88.5,234.9,87.4z M255.5,425.4l102.4-59.1c-0.3-1-0.6-1.9-0.8-2.9H88c-0.1,0.6-0.3,1.2-0.5,1.7l102.9,59.4
	c8.4-8.7,20-13.7,32.1-13.6C235,410.9,247,416.1,255.5,425.4L255.5,425.4z"/>
</svg>
