<?xml version="1.0" encoding="UTF-8"?>
<svg id="Layer_1" data-name="Layer 1" xmlns="http://www.w3.org/2000/svg" viewBox="0 0 512 512">
  <defs>
    <style>
      .cls-1 {
        fill: #00b058;
      }

      .cls-2 {
        fill: #fff;
      }

      .cls-3 {
        fill: #ef3d44;
      }

      .cls-4 {
        fill: #171717;
      }

      .cls-5 {
        fill: none;
        stroke: #8b8b8b;
        stroke-width: 2px;
      }

      .cls-6 {
        fill: #492f93;
        stroke: #492f93;
        stroke-miterlimit: 10;
      }
    </style>
  </defs>
  <g>
    <g id="diamong">
      <g>
        <path class="cls-2" d="M384.33,340.8c-1.97,0-3.89-.43-5.7-1.27l-151.91-70.84c-6.75-3.15-9.68-11.19-6.53-17.94L332.79,9.3c2.21-4.74,7.02-7.8,12.24-7.8,1.97,0,3.89,.43,5.7,1.27l151.91,70.84c3.27,1.52,5.75,4.23,6.98,7.62,1.23,3.39,1.07,7.05-.45,10.32l-112.59,241.46c-2.21,4.74-7.02,7.8-12.25,7.8Z"/>
        <path d="M345.04,3h0c1.75,0,3.46,.38,5.06,1.13l151.91,70.84c2.91,1.35,5.11,3.76,6.2,6.77,1.1,3.01,.95,6.27-.4,9.18l-112.59,241.46c-1.96,4.21-6.24,6.93-10.89,6.93-1.75,0-3.46-.38-5.06-1.13l-151.91-70.84c-2.9-1.35-5.11-3.76-6.2-6.77-1.1-3.01-.95-6.27,.4-9.18L334.15,9.93c1.96-4.21,6.24-6.93,10.89-6.93m0-3c-5.65,0-11.06,3.21-13.6,8.66l-112.59,241.46c-3.5,7.51-.25,16.43,7.26,19.93l151.91,70.84c2.05,.96,4.21,1.41,6.33,1.41,5.65,0,11.06-3.21,13.6-8.66l112.59-241.46c3.5-7.51,.25-16.43-7.26-19.93L351.37,1.41C349.32,.45,347.16,0,345.04,0h0Z"/>
      </g>
      <g>
        <path class="cls-3" d="M457.04,123.85c.09-.2,.03-.59-.37-1.03-12.21-15.06-24.46-30.03-36.71-44.99-2.4-2.94-4.75-5.74-7.15-8.69-.25-.24-.55-.38-.9-.42l-69.02,.8c-.74,.02-1.18,.18-1.32,.48s.02,.74,.48,1.32l43.8,53.29c.25,.24,.55,.38,.9,.42l69.22-.71c.64-.07,.93-.17,1.07-.47h0Z"/>
        <path class="cls-3" d="M387.77,272.4c.09-.2,.03-.59-.37-1.03-12.21-15.06-24.46-30.03-36.71-44.99-2.4-2.94-4.75-5.74-7.15-8.69-.25-.24-.55-.38-.9-.42l-69.02,.8c-.74,.02-1.18,.18-1.32,.48s.02,.74,.48,1.32l43.8,53.29c.25,.24,.55,.38,.9,.42l69.22-.71c.64-.07,.93-.17,1.07-.47h0Z"/>
        <path class="cls-3" d="M422.01,198.97c.09-.2,.03-.59-.37-1.03-12.21-15.06-24.46-30.03-36.71-44.99-2.4-2.94-4.75-5.74-7.15-8.69-.25-.24-.55-.38-.9-.42l-69.02,.8c-.74,.02-1.18,.18-1.32,.48s.02,.74,.48,1.32l43.8,53.29c.25,.24,.55,.38,.9,.42l69.22-.71c.64-.07,.93-.17,1.07-.47h0Z"/>
      </g>
    </g>
    <g id="oval">
      <g>
        <rect class="cls-2" x="158.69" y="8.63" width="194.61" height="293.42" rx="13.5" ry="13.5"/>
        <path d="M339.81,10.13c6.62,0,12,5.38,12,12V288.55c0,6.62-5.38,12-12,12H172.19c-6.62,0-12-5.38-12-12V22.13c0-6.62,5.38-12,12-12h167.61m0-3H172.19c-8.28,0-15,6.72-15,15V288.55c0,8.28,6.72,15,15,15h167.61c8.28,0,15-6.72,15-15V22.13c0-8.28-6.72-15-15-15h0Z"/>
      </g>
      <g>
        <path class="cls-1" d="M316.51,195.7c0-1.99-.22-3.97-.66-5.96-3.42-14.45-15.66-23.17-30.56-23.17h-53.83c-6.84,0-11.69,.44-14.56,1.21-14.12,3.86-21.4,15.89-21.4,28.02s6.62,23.06,20.19,27.36c3.2,.99,8.16,1.54,14.78,1.54h51.3c6.95,0,11.91-.55,15.11-1.65,11.58-3.97,19.64-15.44,19.64-27.36h0Z"/>
        <path class="cls-1" d="M316.51,115.09c0-1.99-.22-3.97-.66-5.96-3.42-14.45-15.66-23.17-30.56-23.17h-53.83c-6.84,0-11.69,.44-14.56,1.21-14.12,3.86-21.4,15.89-21.4,28.02s6.62,23.06,20.19,27.36c3.2,.99,8.16,1.54,14.78,1.54h51.3c6.95,0,11.91-.55,15.11-1.65,11.58-3.97,19.64-15.44,19.64-27.36h0Z"/>
      </g>
    </g>
    <g id="squiggle">
      <g>
        <path class="cls-2" d="M127.67,340.8c-5.23,0-10.04-3.06-12.25-7.8L2.83,91.54c-1.52-3.27-1.68-6.93-.45-10.32,1.23-3.39,3.71-6.09,6.98-7.62L161.27,2.77c1.81-.84,3.72-1.27,5.7-1.27,5.23,0,10.04,3.06,12.25,7.8l112.59,241.46c1.52,3.27,1.68,6.93,.45,10.32s-3.71,6.09-6.98,7.62l-151.91,70.84c-1.81,.84-3.72,1.27-5.7,1.27Z"/>
        <path d="M166.96,0V3c4.65,0,8.92,2.72,10.88,6.93l112.59,241.46c2.8,6,.19,13.15-5.8,15.95l-151.91,70.84c-1.6,.75-3.31,1.13-5.06,1.13-4.65,0-8.92-2.72-10.89-6.93L4.19,90.91c-1.35-2.9-1.5-6.16-.4-9.18,1.1-3.01,3.3-5.42,6.2-6.77L161.9,4.13c1.6-.75,3.31-1.13,5.06-1.13V0m0,0c-2.12,0-4.28,.45-6.33,1.41L8.72,72.24c-7.51,3.5-10.76,12.43-7.26,19.93l112.59,241.46c2.55,5.46,7.95,8.66,13.6,8.66,2.12,0,4.28-.45,6.33-1.41l151.91-70.84c7.51-3.5,10.76-12.43,7.26-19.93L180.57,8.66C178.02,3.21,172.61,0,166.96,0h0Z"/>
      </g>
      <path class="cls-6" d="M194.79,136.44c-2.47-5.3-7.48-11.6-13.31-11.32-2.42,.03-4.43,1.21-5.82,3.44-7.11,11.11-12.27,19.36-24.42,23.07-2.34,.73-6.94,1.29-13.57,1.7-17.75,1.09-38.53,4.82-42.51,25.79-1.55,7.9-.57,15.48,2.74,22.58,1.17,2.5,2.68,4.96,4.44,7.43,3.71,5.09,11.09,9.68,17.02,5.7,1.21-.81,2.74-2.74,4.75-5.99,7.03-11.55,15.81-18.57,29.78-18.63,26.9-.25,52.58-22.2,41.73-51.72-.18-.65-.51-1.35-.83-2.05h0Z"/>
    </g>
  </g>
  <g>
    <g>
      <path class="cls-5" d="M174.94,466.77h19.63c.11,0,.19-.09,.19-.19v-17.09c0-.11,.09-.19,.19-.19h6.28c.11,0,.19,.09,.19,.19v33.51c0,.11,.09,.19,.19,.19h72.42s.09-.04,.09-.08h0l.1-16.08c0-.14,.11-.25,.25-.25h19.33c.13,0,.24-.11,.24-.24h0v-17.01c0-.13,.1-.23,.22-.23h6.9c.1,0,.18,.08,.18,.18l.14,33.53c0,.1,.08,.19,.19,.19h72.24c.11,0,.19-.09,.19-.19v-16.03c0-.11,.09-.19,.19-.19h19.51c.11,0,.19-.09,.19-.19v-17.09c0-.11,.09-.19,.19-.19h15.63c.11,0,.2-.09,.2-.2h0v-90.94c0-.09-.08-.17-.17-.17h-69.43c-.29,0-.53,.23-.53,.52l-.04,13.51c0,.22-.18,.4-.4,.4l-17.49-.02c-.11,0-.2,.09-.2,.2l-.02,15.96c0,.1-.09,.19-.19,.19h-11.1c-.16,0-.29-.13-.29-.29v-30.23c0-.11-.09-.2-.2-.2-4.18-.1-9.52-.11-16-.03-6.38,.08-17.75,.08-34.09,0-6.29-.03-13.21,.11-19.86-.05-.28,0-.51,.21-.52,.49-.15,4.61-.17,9.21-.07,13.81,0,.1-.07,.18-.17,.18,0,0,0,0,0,0h-17.95c-.11,0-.2,.09-.2,.2l-.02,15.64c0,.33-.26,.59-.59,.59,0,0,0,0,0,0h-9.28c-.24-.01-.43-.21-.43-.44v-30.22c0-.11-.08-.2-.19-.2h0c-4.63-.07-10.84-.06-18.64,.02-11.01,.12-26.12-.12-41.89,.02-2.77,.03-5.7-.03-8.79-.17-.58-.03-.88,.25-.88,.84l-.02,13.53c0,.1-.08,.19-.19,.19h-17.96c-.11,0-.19,.09-.19,.19v15.66c0,.5-.25,.72-.75,.65-1-.15-1.93-.2-2.77-.17-5.39,.24-10.86,.09-16.26,.08-.11,0-.19,.09-.2,.19-.02,.84-.02,1.67-.03,2.51-.06,29.1-.09,58.21-.08,87.31,0,1.22,.13,2.76,.12,4.15,0,.09,.07,.16,.16,.16h0l44.21,.12c.11,0,.19,.09,.19,.19,0,0,0,0,0,.01-.47,7.49-3.76,22.47-13.97,22.59-3.47,.04-6.2-2.61-6.87-5.98-.98-4.91-1.59-7.84-1.83-8.78-.71-2.82-2.58-4.97-5.49-5.05-.11,0-.2,.08-.2,.19,0,0,0,0,0,0v25.13c0,.11,.07,.21,.17,.25,.9,.33,1.65,.2,2.27-.4,2.67-2.58,4.3-1.07,7.18-.38,14.05,3.35,23.64-10.16,26.9-21.79,.51-1.82,.63-3.84,.96-5.82,.02-.13,.14-.22,.27-.22l18.56-.03c.1,0,.19-.08,.19-.19h0v-16.05c0-.09,.08-.17,.17-.17h0" vector-effect="non-scaling-stroke"/>
      <path class="cls-5" d="M386.12,473.95c0-2.7-2.19-4.89-4.89-4.89h0c-2.7,0-4.89,2.19-4.89,4.89s2.19,4.89,4.89,4.89c2.7,0,4.89-2.19,4.89-4.89h0" vector-effect="non-scaling-stroke"/>
      <path class="cls-5" d="M408.01,360.05c0-.06-.05-.1-.1-.1h-65.84c-.06,0-.1,.05-.1,.1h0v2.7c0,.06,.05,.1,.1,.1h65.84c.06,0,.1-.05,.1-.1h0v-2.7" vector-effect="non-scaling-stroke"/>
      <path class="cls-5" d="M208.78,360.05c0-.06-.04-.1-.1-.1h-66.07c-.06,0-.1,.04-.1,.1h0v2.7c0,.06,.04,.1,.1,.1h66.07c.06,0,.1-.04,.1-.1v-2.7" vector-effect="non-scaling-stroke"/>
      <path class="cls-5" d="M308.15,360.08c0-.07-.06-.13-.13-.13h-66.43c-.07,0-.13,.06-.13,.13v2.66c0,.07,.06,.13,.13,.13h66.43c.07,0,.13-.06,.13-.13h0v-2.66" vector-effect="non-scaling-stroke"/>
      <path class="cls-5" d="M208.81,364.98c0-.06-.05-.1-.1-.1h-66.08c-.06,0-.1,.05-.1,.1h0v2.69c0,.06,.05,.1,.1,.1h66.08c.06,0,.1-.05,.1-.1h0v-2.69" vector-effect="non-scaling-stroke"/>
      <path class="cls-5" d="M308.17,364.96c0-.06-.04-.1-.1-.1h-66.52c-.06,0-.1,.04-.1,.1v2.71c0,.06,.04,.1,.1,.1h66.52c.06,0,.1-.04,.1-.1h0v-2.71" vector-effect="non-scaling-stroke"/>
      <path class="cls-5" d="M408.01,365.02c0-.08-.06-.14-.14-.14h-65.77c-.08,0-.14,.06-.14,.14v2.62c0,.08,.06,.14,.14,.14h65.77c.08,0,.14-.06,.14-.14v-2.62" vector-effect="non-scaling-stroke"/>
      <path class="cls-5" d="M208.85,369.87c0-.06-.04-.1-.1-.1l-66.18-.12c-.06,0-.1,.04-.1,.1h0s0,2.57,0,2.57c0,.06,.04,.1,.1,.1l66.18,.12c.06,0,.1-.04,.1-.1h0s0-2.57,0-2.57" vector-effect="non-scaling-stroke"/>
      <path class="cls-5" d="M308.18,369.87c0-.06-.04-.1-.1-.1h0l-66.55-.12c-.06,0-.1,.04-.1,.1v2.56c0,.06,.04,.1,.1,.1h0l66.55,.12c.06,0,.1-.04,.1-.1v-2.56" vector-effect="non-scaling-stroke"/>
      <path class="cls-5" d="M408.02,369.87c0-.06-.05-.1-.1-.1h0l-65.89-.11c-.06,0-.1,.05-.1,.1v2.54c0,.06,.04,.1,.1,.1l65.89,.11c.06,0,.1-.05,.1-.1v-2.54" vector-effect="non-scaling-stroke"/>
      <path class="cls-5" d="M308.16,374.72c0-.06-.05-.1-.1-.1l-13.91,.02c-.06,0-.1,.05-.1,.1h0s0,2.93,0,2.93c0,.06,.05,.1,.1,.1l13.91-.02c.06,0,.1-.05,.1-.1h0s0-2.93,0-2.93" vector-effect="non-scaling-stroke"/>
      <path class="cls-5" d="M208.81,374.73c0-.06-.04-.1-.1-.1h-13.78c-.06,0-.1,.04-.1,.1v2.7c0,.06,.04,.1,.1,.1h13.78c.06,0,.1-.04,.1-.1h0v-2.7" vector-effect="non-scaling-stroke"/>
      <path class="cls-5" d="M408.02,374.74c0-.06-.05-.1-.1-.1h-13.79c-.06,0-.1,.05-.1,.1h0v2.89c0,.06,.05,.1,.1,.1h13.79c.06,0,.1-.05,.1-.1h0v-2.89" vector-effect="non-scaling-stroke"/>
      <path class="cls-5" d="M208.76,379.64c0-.06-.05-.1-.1-.1l-13.72,.02c-.06,0-.1,.05-.1,.1h0v2.89c0,.06,.05,.1,.11,.1l13.72-.02c.06,0,.1-.05,.1-.1h0v-2.89" vector-effect="non-scaling-stroke"/>
      <path class="cls-5" d="M308.15,379.86c0-.06-.05-.1-.1-.1h-13.89c-.06,0-.1,.05-.1,.1h0v2.69c0,.06,.05,.1,.1,.1h13.89c.06,0,.1-.05,.1-.1h0v-2.69" vector-effect="non-scaling-stroke"/>
      <path class="cls-5" d="M408.02,379.86c0-.06-.05-.1-.1-.1h-13.8c-.06,0-.1,.05-.1,.1h0v2.69c0,.06,.05,.1,.1,.1h13.8c.06,0,.1-.05,.1-.1h0v-2.69" vector-effect="non-scaling-stroke"/>
      <path class="cls-5" d="M308.15,384.78c0-.06-.04-.1-.1-.1h-13.89c-.06,0-.1,.04-.1,.1h0v2.7c0,.06,.04,.1,.1,.1h13.89c.06,0,.1-.04,.1-.1h0v-2.7" vector-effect="non-scaling-stroke"/>
      <path class="cls-5" d="M408.01,384.83c0-.08-.06-.14-.14-.14h0l-13.71-.02c-.08,0-.14,.06-.14,.14v2.63c0,.08,.06,.14,.13,.14l13.71,.02c.08,0,.14-.06,.14-.14v-2.63" vector-effect="non-scaling-stroke"/>
      <path class="cls-5" d="M208.79,384.78c0-.06-.05-.1-.1-.1h-13.73c-.06,0-.1,.05-.1,.1v2.69c0,.06,.05,.1,.1,.1h13.73c.06,0,.1-.05,.1-.1v-2.69" vector-effect="non-scaling-stroke"/>
      <path class="cls-5" d="M201.41,389.69c0-.06-.05-.1-.1-.1h-6.37c-.06,.01-.1,.06-.1,.11v2.62c0,.06,.05,.1,.11,.1h6.37c.06-.01,.1-.06,.1-.11v-2.62" vector-effect="non-scaling-stroke"/>
      <path class="cls-5" d="M301.4,389.66c0-.06-.05-.1-.1-.1h0l-7.15,.02c-.06,0-.1,.05-.1,.1v2.64c0,.06,.05,.1,.11,.1h0l7.15-.02c.06,0,.1-.05,.1-.1h0v-2.64" vector-effect="non-scaling-stroke"/>
      <path class="cls-5" d="M408.01,389.68c0-.06-.05-.1-.1-.1h0l-13.78-.02c-.06,0-.1,.05-.1,.1h0s0,2.64,0,2.64c0,.06,.05,.1,.1,.1h0l13.78,.02c.06,0,.1-.05,.1-.1h0s0-2.64,0-2.64" vector-effect="non-scaling-stroke"/>
      <path class="cls-5" d="M153.03,403.43c.29,3.9-.2,8.25-.2,11.54,.01,4.64,.03,9.27,.05,13.91,0,.11-.08,.2-.19,.21-4.33,.37-5.36-2.18-6.27-6.03-1.41-5.98-2.63-15.87-11.55-14-12.17,2.55,4.72,23.38,7.74,27.61,5.54,7.77,9.48,16.04,11.85,25.29,1.18,4.6,1.26,9.43,1.53,14.44,.09,1.68,.05,3.24-.14,4.67-.01,.1,.05,.18,.15,.2,0,0,.02,0,.02,0h16.63c.1-.01,.19-.1,.19-.2,0,0,0,0,0,0-.31-20.48,.03-40.63,0-72.55,0-4.38-.17-11.46,.03-17.3,0-.24-.18-.44-.42-.45,0,0-.01,0-.02,0H104.08c-.11,0-.19,.09-.19,.19v90.11c0,.1,.09,.19,.19,.19,13.51,0,27.03-.02,40.54-.09,.6,0,1.24-.03,1.91-.08,.11,0,.19-.1,.18-.21,0,0,0,0,0,0-.72-9.61-5.24-18.61-10.57-26.65-4.6-6.94-7.42-11.17-8.47-12.68-7.18-10.33-13.94-29.66,1.26-37.21,6.11-3.04,11.35-1.55,16.96,1.52,4.09,2.25,3.58-3.02,6.94-2.65,.11,.01,.2,.1,.21,.22" vector-effect="non-scaling-stroke"/>
      <path class="cls-5" d="M272.17,390.9c0-.08-.06-.14-.14-.14h-68.53c-.08,0-.14,.06-.14,.14v90.22c0,.08,.06,.14,.14,.14h68.53c.08,0,.14-.06,.14-.14h0v-90.22" vector-effect="non-scaling-stroke"/>
      <path class="cls-5" d="M372.18,390.98c0-.12-.1-.21-.21-.21h-68.33c-.12,0-.21,.1-.21,.21v90.07c0,.12,.1,.21,.21,.21h68.33c.12,0,.21-.1,.21-.21v-90.07" vector-effect="non-scaling-stroke"/>
      <path class="cls-5" d="M201.43,394.54c0-.06-.04-.1-.1-.1h-6.41c-.06-.01-.1,.03-.1,.09h0s0,2.7,0,2.7c0,.06,.04,.1,.1,.1h6.41c.06,.01,.1-.03,.1-.09h0s0-2.7,0-2.7" vector-effect="non-scaling-stroke"/>
      <path class="cls-5" d="M301.39,394.52c0-.06-.05-.1-.1-.1l-7.14,.02c-.06,0-.1,.05-.1,.1v2.7c0,.06,.05,.1,.11,.1l7.14-.02c.06,0,.1-.05,.1-.1v-2.7" vector-effect="non-scaling-stroke"/>
      <path class="cls-5" d="M408.01,394.53c0-.06-.04-.1-.1-.1h-13.8c-.06,0-.1,.04-.1,.1h0v2.7c0,.06,.04,.1,.1,.1h13.8c.06,0,.1-.04,.1-.1h0v-2.7" vector-effect="non-scaling-stroke"/>
      <path class="cls-5" d="M408.01,399.46c0-.06-.04-.1-.1-.1h-13.77c-.06,0-.1,.04-.1,.1h0v2.7c0,.06,.04,.1,.1,.1h13.77c.06,0,.1-.04,.1-.1h0v-2.7" vector-effect="non-scaling-stroke"/>
      <path class="cls-5" d="M201.43,399.46c0-.06-.04-.1-.1-.1h-6.38c-.06,0-.1,.04-.1,.1h0v2.7c0,.06,.04,.1,.1,.1h6.38c.06,0,.1-.04,.1-.1h0v-2.7" vector-effect="non-scaling-stroke"/>
      <path class="cls-5" d="M301.39,399.45c0-.06-.05-.1-.1-.1h-7.14c-.06,.01-.1,.06-.1,.11h0s0,2.7,0,2.7c0,.06,.05,.1,.1,.1h7.14c.06-.01,.1-.06,.1-.11h0s0-2.7,0-2.7" vector-effect="non-scaling-stroke"/>
      <path class="cls-5" d="M301.39,404.37c0-.06-.04-.1-.1-.1h-7.13c-.06-.01-.1,.03-.1,.09v2.92c0,.06,.04,.1,.1,.1h7.13c.06,.01,.1-.03,.1-.09h0v-2.92" vector-effect="non-scaling-stroke"/>
      <path class="cls-5" d="M408.02,404.42c0-.08-.06-.14-.14-.14h-13.72c-.08,0-.14,.06-.14,.14v2.82c0,.08,.06,.14,.14,.14h13.72c.08,0,.14-.06,.14-.14v-2.82" vector-effect="non-scaling-stroke"/>
      <path class="cls-5" d="M201.42,404.37c0-.06-.05-.1-.1-.1l-6.38,.03c-.06,0-.1,.05-.1,.1h0s.01,2.68,.01,2.68c0,.06,.05,.1,.1,.1l6.38-.03c.06,0,.1-.05,.1-.1h0s-.01-2.68-.01-2.68" vector-effect="non-scaling-stroke"/>
      <path class="cls-5" d="M201.43,409.22c0-.06-.05-.1-.1-.1h-6.39c-.06-.01-.1,.04-.1,.09v2.89c0,.06,.04,.1,.1,.1h6.39c.06,.01,.1-.04,.1-.09h0s0-2.89,0-2.89" vector-effect="non-scaling-stroke"/>
      <path class="cls-5" d="M301.39,409.42c0-.06-.05-.1-.1-.1h-7.13c-.06-.01-.1,.03-.1,.09h0s0,2.7,0,2.7c0,.06,.05,.1,.1,.1h7.13c.06,.01,.1-.03,.1-.09h0s0-2.7,0-2.7" vector-effect="non-scaling-stroke"/>
      <path class="cls-5" d="M408.02,409.41c0-.06-.05-.1-.1-.1h-13.79c-.06,0-.1,.05-.1,.1h0v2.69c0,.06,.05,.1,.1,.1h13.79c.06,0,.1-.05,.1-.1h0v-2.69" vector-effect="non-scaling-stroke"/>
      <path class="cls-5" d="M201.42,414.34c0-.06-.05-.1-.1-.1h-6.36c-.06,0-.1,.05-.1,.1h0v2.7c0,.06,.05,.1,.1,.1h6.36c.06,0,.1-.05,.1-.1v-2.7" vector-effect="non-scaling-stroke"/>
      <path class="cls-5" d="M301.39,414.34c0-.06-.05-.1-.1-.1h-7.12c-.06-.01-.1,.03-.1,.09h0s0,2.7,0,2.7c0,.06,.05,.1,.1,.1h7.12c.06,.01,.1-.03,.1-.09h0s0-2.7,0-2.7" vector-effect="non-scaling-stroke"/>
      <path class="cls-5" d="M408.02,414.33c0-.06-.04-.1-.1-.1h-13.8c-.06,0-.1,.04-.1,.1h0v2.7c0,.06,.04,.1,.1,.1h13.8c.06,0,.1-.04,.1-.1h0v-2.7" vector-effect="non-scaling-stroke"/>
      <path class="cls-5" d="M201.43,419.26c0-.06-.04-.1-.1-.1h-6.44c-.06-.01-.1,.03-.1,.09v2.7c0,.06,.04,.1,.1,.1h6.44c.06,.01,.1-.03,.1-.09h0v-2.7" vector-effect="non-scaling-stroke"/>
      <path class="cls-5" d="M301.38,419.26c0-.06-.05-.1-.1-.1h-7.13c-.06,.01-.1,.06-.1,.12h0s0,2.7,0,2.7c0,.06,.05,.1,.1,.1h7.13c.06-.01,.1-.06,.1-.12h0s0-2.7,0-2.7" vector-effect="non-scaling-stroke"/>
      <path class="cls-5" d="M408.02,419.27c0-.06-.05-.12-.12-.12h-13.77c-.06,0-.12,.05-.12,.12v2.67c0,.06,.05,.12,.12,.12h13.77c.06,0,.12-.05,.12-.12v-2.67" vector-effect="non-scaling-stroke"/>
      <path class="cls-5" d="M201.42,424.18c0-.06-.04-.1-.1-.1h-6.37c-.06,0-.1,.04-.1,.1h0v2.71c0,.06,.04,.1,.1,.1h6.37c.06,0,.1-.04,.1-.1v-2.71" vector-effect="non-scaling-stroke"/>
      <path class="cls-5" d="M301.39,424.19c0-.06-.04-.1-.1-.1h-7.14c-.06-.01-.1,.03-.1,.09v2.7c0,.06,.04,.1,.1,.1h7.14c.06,.01,.1-.03,.1-.09v-2.7" vector-effect="non-scaling-stroke"/>
      <path class="cls-5" d="M408.02,424.19c0-.06-.05-.12-.12-.12h-13.77c-.06,0-.12,.05-.12,.12v2.67c0,.06,.05,.12,.12,.12h13.77c.06,0,.12-.05,.12-.12v-2.67" vector-effect="non-scaling-stroke"/>
      <path class="cls-5" d="M301.39,429.01c0-.06-.04-.1-.1-.1h-7.13c-.06-.01-.1,.03-.1,.09v2.72c0,.06,.04,.1,.1,.1h7.13c.06,.01,.1-.03,.1-.09v-2.72" vector-effect="non-scaling-stroke"/>
      <path class="cls-5" d="M201.43,429.01c0-.06-.05-.1-.1-.1h-6.37c-.06,.01-.1,.06-.1,.11h0s0,2.7,0,2.7c0,.06,.05,.1,.1,.1h6.37c.06-.01,.1-.06,.1-.11h0s0-2.7,0-2.7" vector-effect="non-scaling-stroke"/>
      <path class="cls-5" d="M408.02,429.06c0-.08-.06-.14-.14-.14h-13.68c-.08,0-.14,.06-.14,.14v2.61c0,.08,.06,.14,.14,.14h13.68c.08,0,.14-.06,.14-.14v-2.61" vector-effect="non-scaling-stroke"/>
      <path class="cls-5" d="M201.43,433.99c0-.08-.06-.14-.14-.14h-6.35c-.08-.01-.14,.05-.14,.13h0v3.1c0,.08,.06,.14,.14,.14h6.35c.08,.01,.14-.05,.14-.13h0v-3.1" vector-effect="non-scaling-stroke"/>
      <path class="cls-5" d="M301.45,433.96c0-.06-.05-.1-.1-.1l-7.19-.03c-.06,0-.1,.05-.1,.1v3.18c-.01,.06,.04,.1,.09,.1l7.19,.03c.06,0,.1-.05,.1-.1v-3.18" vector-effect="non-scaling-stroke"/>
      <path class="cls-5" d="M408.01,434c0-.09-.07-.16-.16-.16h-13.65c-.09,0-.16,.07-.16,.16v3.07c0,.09,.07,.16,.16,.16h13.65c.09,0,.16-.07,.16-.16v-3.07" vector-effect="non-scaling-stroke"/>
      <path class="cls-5" d="M201.43,439.35c0-.06-.04-.1-.1-.1h-6.44c-.06-.01-.1,.03-.1,.09v2.7c0,.06,.04,.1,.1,.1h6.44c.06,.01,.1-.03,.1-.09v-2.7" vector-effect="non-scaling-stroke"/>
      <path class="cls-5" d="M301.41,439.36c0-.06-.04-.1-.1-.1h0l-7.16-.02c-.06,0-.1,.04-.1,.1v2.7c0,.06,.04,.1,.09,.1h0l7.16,.02c.06,0,.1-.04,.1-.1h0s0-2.7,0-2.7" vector-effect="non-scaling-stroke"/>
      <path class="cls-5" d="M408.01,439.33c0-.06-.05-.1-.1-.1l-13.78,.02c-.06,0-.1,.05-.1,.1h0s0,2.7,0,2.7c0,.06,.05,.1,.1,.1l13.78-.02c.06,0,.1-.05,.1-.1h0s0-2.7,0-2.7" vector-effect="non-scaling-stroke"/>
      <path class="cls-5" d="M201.43,444.26c0-.06-.05-.1-.1-.1h-6.4c-.06,.01-.1,.06-.1,.11v2.91c0,.06,.05,.1,.11,.1h6.4c.06-.01,.1-.06,.1-.11v-2.91" vector-effect="non-scaling-stroke"/>
      <path class="cls-5" d="M408.02,444.28c0-.06-.04-.1-.1-.1l-13.8-.02c-.06,0-.1,.04-.1,.1v2.9c0,.06,.04,.1,.1,.1l13.8,.02c.06,0,.1-.04,.1-.1h0s0-2.9,0-2.9" vector-effect="non-scaling-stroke"/>
      <path class="cls-5" d="M301.41,444.28c0-.06-.05-.1-.1-.1h-7.15c-.06,0-.1,.05-.1,.1h0v2.9c0,.06,.05,.1,.1,.1h7.15c.06,0,.1-.05,.1-.1v-2.9" vector-effect="non-scaling-stroke"/>
      <path class="cls-5" d="M236.97,423.38v-13.77c0-.11,.08-.21,.2-.22,7.58-1.12,9.26,5.47,9.94,11.32,.04,.38,.25,.99,.61,1.82,.06,.13,.18,.22,.32,.23l1.12,.1c.13,.01,.24-.09,.25-.22,0,0,0-.01,0-.02l.02-16.73c0-.14-.12-.26-.26-.26h0l-23.94,.04c-.19,0-.36,.1-.46,.25-.7,1.11,.99,2.24,1.78,2.69,.64,.36,.97,.9,.98,1.64,.11,7.55,.11,15.09,.02,22.62-.11,8.93,.2,19.02,0,25.78-.02,.77-.34,1.5-.95,2.19-.56,.63-3.11,1.54-2.44,2.58,.06,.1,.17,.15,.29,.15h24.72c.12,0,.23-.1,.23-.22,.02-1.74,.05-3.47,.07-5.21,.06-4.02,.34-8.66-.12-13.1-.01-.14-.13-.24-.27-.22,0,0-.01,0-.02,0l-.65,.11c-.62,.11-1.01,.46-1.17,1.06-.68,2.52-1.33,4.92-1.96,7.2-1.1,3.98-3.36,7.52-8.1,6.53-.11-.02-.19-.12-.19-.22l.02-32.95c0-.08,.06-.14,.14-.14,0,0,0,0,.01,0,7.36,.5,4.66,11.11,8.3,10.86,.13,0,.22-.11,.22-.24v-13.34c0-.11-.09-.2-.2-.2l-8.33,.05c-.09,0-.16-.07-.16-.16h0" vector-effect="non-scaling-stroke"/>
      <path class="cls-5" d="M342.12,460.67c-.44-1.81-.15-3.78-.16-5.18-.07-14.76-.06-29.8,.02-45.12,0-.18,.13-.34,.31-.37,2.52-.52,3.64,1.9,4.01,3.95,.25,1.38,.69,3.95,1.31,7.71,.24,1.43,.75,3.48,2.39,3.89,.24,.06,.47-.09,.53-.32,0-.03,.01-.07,.01-.11v-19c0-.11-.09-.19-.19-.19h-26.66c-.11,0-.19,.09-.19,.19v19.02c0,.24,.19,.43,.43,.43,.06,0,.13-.01,.19-.04,4.77-2.29,1.5-15.44,7.69-15.46,.19,0,.35,.15,.35,.34,.11,7.05,.09,14.09-.05,21.12-.2,9.99-.22,16.49-.05,19.53,.17,2.98,.21,5.87,.12,8.67-.02,.51-.23,.92-.66,1.21-1.12,.79-3.3,1.66-3.44,3.13-.01,.09,.06,.18,.15,.19,0,0,.01,0,.02,0h16.98c.13,0,.24-.11,.23-.24,0-.02,0-.04,0-.05-.42-1.78-1.76-2.15-3.12-3.01-.11-.07-.18-.17-.21-.29" vector-effect="non-scaling-stroke"/>
      <path class="cls-5" d="M385.21,473.97c0-2.21-1.79-4.01-4.01-4.01h0c-2.21,0-4.01,1.79-4.01,4.01h0c0,2.21,1.79,4.01,4.01,4.01s4.01-1.79,4.01-4.01" vector-effect="non-scaling-stroke"/>
      <path class="cls-5" d="M379.54,476.52c1.15,.65,.68-1.42,.7-1.92,0-.11,.09-.2,.2-.2h1.45c.57-.01,.8,.26,.69,.82-.17,.84,.11,1.32,.85,1.44,.14,.02,.27-.07,.3-.21,0-.03,0-.07,0-.1-.32-1.32-.39-2.66-.2-4.01,.11-.76-.22-1.14-.99-1.14l-2.62-.02c-.38,0-.69,.3-.69,.68,0,.01,0,.02,0,.03l.13,4.33c0,.13,.07,.24,.18,.3" vector-effect="non-scaling-stroke"/>
      <path class="cls-5" d="M382.63,472.31c0-.19-.15-.35-.35-.36l-1.72-.02c-.19,0-.35,.15-.36,.35h0s0,.75,0,.75c0,.19,.15,.35,.35,.36l1.72,.02c.19,0,.35-.15,.36-.35v-.75" vector-effect="non-scaling-stroke"/>
    </g>
    <path class="cls-4" d="M174.94,466.77c-.09,0-.17,.08-.17,.17h0v16.05c0,.1-.08,.19-.19,.19h0l-18.56,.03c-.13,0-.24,.09-.27,.22-.33,1.98-.45,3.99-.96,5.82-3.26,11.63-12.85,25.13-26.9,21.79-2.89-.69-4.52-2.21-7.18,.38-.62,.6-1.38,.73-2.27,.4-.1-.04-.17-.14-.17-.25v-25.13c0-.11,.09-.2,.2-.2,0,0,0,0,0,0,2.92,.08,4.78,2.24,5.49,5.05,.24,.95,.85,3.88,1.83,8.78,.67,3.37,3.4,6.02,6.87,5.98,10.21-.12,13.5-15.1,13.97-22.59,0-.11-.07-.2-.18-.2,0,0,0,0-.01,0l-44.21-.12c-.09,0-.16-.07-.16-.16h0c.02-1.39-.12-2.93-.12-4.15,0-29.1,.02-58.21,.08-87.31,0-.84,.01-1.67,.03-2.51,0-.11,.09-.19,.2-.19,5.4,0,10.87,.15,16.26-.08,.85-.04,1.77,.02,2.77,.17,.5,.07,.75-.14,.75-.65v-15.66c0-.11,.09-.19,.19-.19h17.96c.1,0,.19-.08,.19-.19l.02-13.53c0-.59,.29-.87,.88-.84,3.09,.14,6.02,.19,8.79,.17,15.77-.14,30.88,.1,41.89-.02,7.8-.09,14.01-.1,18.64-.02,.11,0,.2,.09,.2,.2h0s0,30.22,0,30.22c0,.24,.19,.43,.43,.43h9.28c.33,.01,.59-.25,.59-.58,0,0,0,0,0,0l.02-15.64c0-.11,.09-.2,.2-.2h17.95c.09,0,.17-.08,.17-.17,0,0,0,0,0,0-.11-4.6-.09-9.21,.07-13.81,.01-.28,.24-.5,.52-.49,6.64,.16,13.56,.02,19.86,.05,16.34,.08,27.7,.08,34.09,0,6.49-.08,11.82-.07,16,.03,.11,0,.2,.09,.2,.2v30.23c0,.16,.13,.29,.29,.29h11.1c.11,0,.19-.08,.19-.19l.02-15.96c0-.11,.09-.2,.2-.2l17.49,.02c.22,0,.4-.18,.4-.4l.04-13.51c0-.29,.24-.53,.53-.53h69.43c.09,0,.17,.08,.17,.17h0v90.94c0,.12-.09,.21-.2,.21h-15.63c-.11,0-.19,.08-.19,.19v17.09c0,.11-.09,.19-.19,.19h-19.51c-.11,0-.19,.09-.19,.19v16.03c0,.11-.09,.19-.19,.19h-72.24c-.1,0-.19-.08-.19-.19l-.14-33.53c0-.1-.08-.18-.18-.18h-6.9c-.13,0-.23,.1-.23,.23h0s0,17.01,0,17.01c0,.13-.11,.24-.24,.24h-19.33c-.14,0-.25,.11-.25,.25l-.1,16.08s-.04,.08-.09,.08h-72.42c-.11,0-.19-.09-.19-.19v-33.51c0-.11-.09-.19-.19-.19h-6.28c-.11,0-.19,.09-.19,.19v17.09c0,.11-.09,.19-.19,.19h-19.63Zm233.07-106.72c0-.06-.05-.1-.1-.1h-65.84c-.06,0-.1,.05-.1,.1h0v2.7c0,.06,.05,.1,.1,.1h65.84c.06,0,.1-.05,.1-.1h0v-2.7Zm-199.23,0c0-.06-.04-.1-.1-.1h-66.07c-.06,0-.1,.04-.1,.1h0v2.7c0,.06,.04,.1,.1,.1h66.07c.06,0,.1-.04,.1-.1v-2.7Zm99.37,.03c0-.07-.06-.13-.13-.13h-66.43c-.07,0-.13,.06-.13,.13v2.66c0,.07,.06,.13,.13,.13h66.43c.07,0,.13-.06,.13-.13h0v-2.66Zm-99.34,4.9c0-.06-.05-.1-.1-.1h-66.08c-.06,0-.1,.05-.1,.1h0v2.69c0,.06,.05,.1,.1,.1h66.08c.06,0,.1-.05,.1-.1h0v-2.69Zm99.36-.02c0-.06-.04-.1-.1-.1h-66.52c-.06,0-.1,.04-.1,.1v2.71c0,.06,.04,.1,.1,.1h66.52c.06,0,.1-.04,.1-.1h0v-2.71Zm99.84,.05c0-.08-.06-.14-.14-.14h-65.77c-.08,0-.14,.06-.14,.14v2.62c0,.08,.06,.14,.14,.14h65.77c.08,0,.14-.06,.14-.14v-2.62Zm-199.16,4.85c0-.06-.04-.1-.1-.1l-66.18-.12c-.06,0-.1,.04-.1,.1h0s0,2.57,0,2.57c0,.06,.04,.1,.1,.1l66.18,.12c.06,0,.1-.04,.1-.1h0s0-2.57,0-2.57Zm99.33,0c0-.06-.04-.1-.1-.1h0l-66.55-.12c-.06,0-.1,.04-.1,.1v2.56c0,.06,.04,.1,.1,.1h0l66.55,.12c.06,0,.1-.04,.1-.1v-2.56Zm99.84,0c0-.06-.05-.1-.1-.1h0l-65.89-.11c-.06,0-.1,.05-.1,.1v2.54c0,.06,.04,.1,.1,.1l65.89,.11c.06,0,.1-.05,.1-.1v-2.54Zm-99.85,4.85c0-.06-.05-.1-.1-.1l-13.91,.02c-.06,0-.1,.05-.1,.1h0s0,2.93,0,2.93c0,.06,.05,.1,.1,.1l13.91-.02c.06,0,.1-.05,.1-.1h0s0-2.93,0-2.93Zm-99.35,.02c0-.06-.04-.1-.1-.1h-13.78c-.06,0-.1,.04-.1,.1v2.7c0,.06,.04,.1,.1,.1h13.78c.06,0,.1-.04,.1-.1h0v-2.7Zm199.21,0c0-.06-.05-.1-.1-.1h-13.79c-.06,0-.1,.05-.1,.1h0v2.89c0,.06,.05,.1,.1,.1h13.79c.06,0,.1-.05,.1-.1h0v-2.89Zm-199.25,4.91c0-.06-.05-.1-.1-.1l-13.72,.02c-.06,0-.1,.05-.1,.1h0v2.89c0,.06,.05,.1,.11,.1l13.72-.02c.06,0,.1-.05,.1-.1h0v-2.89Zm99.38,.21c0-.06-.05-.1-.1-.1h-13.89c-.06,0-.1,.05-.1,.1h0v2.69c0,.06,.05,.1,.1,.1h13.89c.06,0,.1-.05,.1-.1h0v-2.69Zm99.87,0c0-.06-.05-.1-.1-.1h-13.8c-.06,0-.1,.05-.1,.1h0v2.69c0,.06,.05,.1,.1,.1h13.8c.06,0,.1-.05,.1-.1h0v-2.69Zm-99.87,4.92c0-.06-.04-.1-.1-.1h-13.89c-.06,0-.1,.04-.1,.1h0v2.7c0,.06,.04,.1,.1,.1h13.89c.06,0,.1-.04,.1-.1h0v-2.7Zm99.87,.05c0-.08-.06-.14-.14-.14h0l-13.71-.02c-.08,0-.14,.06-.14,.14v2.63c0,.08,.06,.14,.13,.14l13.71,.02c.08,0,.14-.06,.14-.14v-2.63Zm-199.22-.04c0-.06-.05-.1-.1-.1h-13.73c-.06,0-.1,.05-.1,.1v2.69c0,.06,.05,.1,.1,.1h13.73c.06,0,.1-.05,.1-.1v-2.69Zm-7.38,4.9c0-.06-.05-.1-.1-.1h-6.37c-.06,.01-.1,.06-.1,.11v2.62c0,.06,.05,.1,.11,.1h6.37c.06-.01,.1-.06,.1-.11v-2.62Zm99.98-.02c0-.06-.05-.1-.1-.1h0l-7.15,.02c-.06,0-.1,.05-.1,.1v2.64c0,.06,.05,.1,.11,.1h0l7.15-.02c.06,0,.1-.05,.1-.1h0v-2.64Zm106.61,.01c0-.06-.05-.1-.1-.1h0l-13.78-.02c-.06,0-.1,.05-.1,.1h0s0,2.64,0,2.64c0,.06,.05,.1,.1,.1h0l13.78,.02c.06,0,.1-.05,.1-.1h0s0-2.64,0-2.64Zm-254.98,13.76c.29,3.9-.2,8.25-.2,11.54,.01,4.64,.03,9.27,.05,13.91,0,.11-.08,.2-.19,.21-4.33,.37-5.36-2.18-6.27-6.03-1.41-5.98-2.63-15.87-11.55-14-12.17,2.55,4.72,23.38,7.74,27.61,5.54,7.77,9.48,16.04,11.85,25.29,1.18,4.6,1.26,9.43,1.53,14.44,.09,1.68,.05,3.24-.14,4.67-.01,.1,.05,.18,.15,.2,0,0,.02,0,.02,0h16.63c.1-.01,.19-.1,.19-.2,0,0,0,0,0,0-.31-20.48,.03-40.63,0-72.55,0-4.38-.17-11.46,.03-17.3,0-.24-.18-.44-.42-.45,0,0-.01,0-.02,0H104.08c-.11,0-.19,.09-.19,.19v90.11c0,.1,.09,.19,.19,.19,13.51,0,27.03-.02,40.54-.09,.6,0,1.24-.03,1.91-.08,.11,0,.19-.1,.18-.21,0,0,0,0,0,0-.72-9.61-5.24-18.61-10.57-26.65-4.6-6.94-7.42-11.17-8.47-12.68-7.18-10.33-13.94-29.66,1.26-37.21,6.11-3.04,11.35-1.55,16.96,1.52,4.09,2.25,3.58-3.02,6.94-2.65,.11,.01,.2,.1,.21,.22Zm119.14-12.53c0-.08-.06-.14-.14-.14h-68.53c-.08,0-.14,.06-.14,.14v90.22c0,.08,.06,.14,.14,.14h68.53c.08,0,.14-.06,.14-.14h0v-90.22Zm100.01,.08c0-.12-.1-.21-.21-.21h-68.33c-.12,0-.21,.1-.21,.21v90.07c0,.12,.1,.21,.21,.21h68.33c.12,0,.21-.1,.21-.21v-90.07Zm-170.75,3.56c0-.06-.04-.1-.1-.1h-6.41c-.06-.01-.1,.03-.1,.09h0s0,2.7,0,2.7c0,.06,.04,.1,.1,.1h6.41c.06,.01,.1-.03,.1-.09h0s0-2.7,0-2.7Zm99.95-.02c0-.06-.05-.1-.1-.1l-7.14,.02c-.06,0-.1,.05-.1,.1v2.7c0,.06,.05,.1,.11,.1l7.14-.02c.06,0,.1-.05,.1-.1v-2.7Zm106.62,.01c0-.06-.04-.1-.1-.1h-13.8c-.06,0-.1,.04-.1,.1h0v2.7c0,.06,.04,.1,.1,.1h13.8c.06,0,.1-.04,.1-.1h0v-2.7Zm0,4.92c0-.06-.04-.1-.1-.1h-13.77c-.06,0-.1,.04-.1,.1h0v2.7c0,.06,.04,.1,.1,.1h13.77c.06,0,.1-.04,.1-.1h0v-2.7Zm-206.58,0c0-.06-.04-.1-.1-.1h-6.38c-.06,0-.1,.04-.1,.1h0v2.7c0,.06,.04,.1,.1,.1h6.38c.06,0,.1-.04,.1-.1h0v-2.7Zm99.96,0c0-.06-.05-.1-.1-.1h-7.14c-.06,.01-.1,.06-.1,.11h0s0,2.7,0,2.7c0,.06,.05,.1,.1,.1h7.14c.06-.01,.1-.06,.1-.11h0s0-2.7,0-2.7Zm0,4.92c0-.06-.04-.1-.1-.1h-7.13c-.06-.01-.1,.03-.1,.09v2.92c0,.06,.04,.1,.1,.1h7.13c.06,.01,.1-.03,.1-.09h0v-2.92Zm106.63,.05c0-.08-.06-.14-.14-.14h-13.72c-.08,0-.14,.06-.14,.14v2.82c0,.08,.06,.14,.14,.14h13.72c.08,0,.14-.06,.14-.14v-2.82Zm-206.59-.05c0-.06-.05-.1-.1-.1l-6.38,.03c-.06,0-.1,.05-.1,.1h0s.01,2.68,.01,2.68c0,.06,.05,.1,.1,.1l6.38-.03c.06,0,.1-.05,.1-.1h0s-.01-2.68-.01-2.68Zm0,4.86c0-.06-.05-.1-.1-.1h-6.39c-.06-.01-.1,.04-.1,.09v2.89c0,.06,.04,.1,.1,.1h6.39c.06,.01,.1-.04,.1-.09h0s0-2.89,0-2.89Zm99.96,.19c0-.06-.05-.1-.1-.1h-7.13c-.06-.01-.1,.03-.1,.09h0s0,2.7,0,2.7c0,.06,.05,.1,.1,.1h7.13c.06,.01,.1-.03,.1-.09h0s0-2.7,0-2.7Zm106.62,0c0-.06-.05-.1-.1-.1h-13.79c-.06,0-.1,.05-.1,.1h0v2.69c0,.06,.05,.1,.1,.1h13.79c.06,0,.1-.05,.1-.1h0v-2.69Zm-206.6,4.92c0-.06-.05-.1-.1-.1h-6.36c-.06,0-.1,.05-.1,.1h0v2.7c0,.06,.05,.1,.1,.1h6.36c.06,0,.1-.05,.1-.1v-2.7Zm99.97,0c0-.06-.05-.1-.1-.1h-7.12c-.06-.01-.1,.03-.1,.09h0s0,2.7,0,2.7c0,.06,.05,.1,.1,.1h7.12c.06,.01,.1-.03,.1-.09h0s0-2.7,0-2.7Zm106.63-.01c0-.06-.04-.1-.1-.1h-13.8c-.06,0-.1,.04-.1,.1h0v2.7c0,.06,.04,.1,.1,.1h13.8c.06,0,.1-.04,.1-.1h0v-2.7Zm-206.58,4.93c0-.06-.04-.1-.1-.1h-6.44c-.06-.01-.1,.03-.1,.09v2.7c0,.06,.04,.1,.1,.1h6.44c.06,.01,.1-.03,.1-.09h0v-2.7Zm99.96,0c0-.06-.05-.1-.1-.1h-7.13c-.06,.01-.1,.06-.1,.12h0s0,2.7,0,2.7c0,.06,.05,.1,.1,.1h7.13c.06-.01,.1-.06,.1-.12h0s0-2.7,0-2.7Zm106.63,.02c0-.06-.05-.12-.12-.12h-13.77c-.06,0-.12,.05-.12,.12v2.67c0,.06,.05,.12,.12,.12h13.77c.06,0,.12-.05,.12-.12v-2.67Zm-206.6,4.9c0-.06-.04-.1-.1-.1h-6.37c-.06,0-.1,.04-.1,.1h0v2.71c0,.06,.04,.1,.1,.1h6.37c.06,0,.1-.04,.1-.1v-2.71Zm99.98,.01c0-.06-.04-.1-.1-.1h-7.14c-.06-.01-.1,.03-.1,.09v2.7c0,.06,.04,.1,.1,.1h7.14c.06,.01,.1-.03,.1-.09v-2.7Zm106.63,0c0-.06-.05-.12-.12-.12h-13.77c-.06,0-.12,.05-.12,.12v2.67c0,.06,.05,.12,.12,.12h13.77c.06,0,.12-.05,.12-.12v-2.67Zm-106.63,4.82c0-.06-.04-.1-.1-.1h-7.13c-.06-.01-.1,.03-.1,.09v2.72c0,.06,.04,.1,.1,.1h7.13c.06,.01,.1-.03,.1-.09v-2.72Zm-99.96,0c0-.06-.05-.1-.1-.1h-6.37c-.06,.01-.1,.06-.1,.11h0s0,2.7,0,2.7c0,.06,.05,.1,.1,.1h6.37c.06-.01,.1-.06,.1-.11h0s0-2.7,0-2.7Zm206.59,.04c0-.08-.06-.14-.14-.14h-13.68c-.08,0-.14,.06-.14,.14v2.61c0,.08,.06,.14,.14,.14h13.68c.08,0,.14-.06,.14-.14v-2.61Zm-206.58,4.94c0-.08-.06-.14-.14-.14h-6.35c-.08-.01-.14,.05-.14,.13h0v3.1c0,.08,.06,.14,.14,.14h6.35c.08,.01,.14-.05,.14-.13h0v-3.1Zm100.02-.04c0-.06-.05-.1-.1-.1l-7.19-.03c-.06,0-.1,.05-.1,.1v3.18c-.01,.06,.04,.1,.09,.1l7.19,.03c.06,0,.1-.05,.1-.1v-3.18Zm106.57,.05c0-.09-.07-.16-.16-.16h-13.65c-.09,0-.16,.07-.16,.16v3.07c0,.09,.07,.16,.16,.16h13.65c.09,0,.16-.07,.16-.16v-3.07Zm-206.58,5.35c0-.06-.04-.1-.1-.1h-6.44c-.06-.01-.1,.03-.1,.09v2.7c0,.06,.04,.1,.1,.1h6.44c.06,.01,.1-.03,.1-.09v-2.7Zm99.98,0c0-.06-.04-.1-.1-.1h0l-7.16-.02c-.06,0-.1,.04-.1,.1v2.7c0,.06,.04,.1,.09,.1h0l7.16,.02c.06,0,.1-.04,.1-.1h0s0-2.7,0-2.7Zm106.6-.03c0-.06-.05-.1-.1-.1l-13.78,.02c-.06,0-.1,.05-.1,.1h0s0,2.7,0,2.7c0,.06,.05,.1,.1,.1l13.78-.02c.06,0,.1-.05,.1-.1h0s0-2.7,0-2.7Zm-206.58,4.93c0-.06-.05-.1-.1-.1h-6.4c-.06,.01-.1,.06-.1,.11v2.91c0,.06,.05,.1,.11,.1h6.4c.06-.01,.1-.06,.1-.11v-2.91Zm206.58,.02c0-.06-.04-.1-.1-.1l-13.8-.02c-.06,0-.1,.04-.1,.1v2.9c0,.06,.04,.1,.1,.1l13.8,.02c.06,0,.1-.04,.1-.1h0s0-2.9,0-2.9Zm-106.61,0c0-.06-.05-.1-.1-.1h-7.15c-.06,0-.1,.05-.1,.1h0v2.9c0,.06,.05,.1,.1,.1h7.15c.06,0,.1-.05,.1-.1v-2.9Z"/>
    <rect class="cls-2" x="341.96" y="359.95" width="66.05" height="2.91" rx=".1" ry=".1"/>
    <rect class="cls-2" x="142.51" y="359.95" width="66.27" height="2.9" rx=".1" ry=".1"/>
    <rect class="cls-2" x="241.47" y="359.95" width="66.69" height="2.91" rx=".13" ry=".13"/>
    <rect class="cls-2" x="142.52" y="364.88" width="66.29" height="2.9" rx=".1" ry=".1"/>
    <rect class="cls-2" x="241.45" y="364.86" width="66.72" height="2.91" rx=".1" ry=".1"/>
    <rect class="cls-2" x="341.96" y="364.88" width="66.05" height="2.9" rx=".14" ry=".14"/>
    <rect class="cls-2" x="174.28" y="337.9" width="2.77" height="66.38" rx=".1" ry=".1" transform="translate(-195.74 546.1) rotate(-89.9)"/>
    <rect class="cls-2" x="273.43" y="337.71" width="2.76" height="66.75" rx=".1" ry=".1" transform="translate(-96.76 645.24) rotate(-89.9)"/>
    <rect class="cls-2" x="373.59" y="338.03" width="2.75" height="66.1" rx=".1" ry=".1" transform="translate(3.23 745.4) rotate(-89.9)"/>
    <rect class="cls-2" x="294.05" y="374.63" width="14.11" height="3.13" rx=".1" ry=".1" transform="translate(-.66 .53) rotate(-.1)"/>
    <rect class="cls-2" x="194.83" y="374.63" width="13.98" height="2.9" rx=".1" ry=".1"/>
    <rect class="cls-2" x="394.01" y="374.63" width="14" height="3.1" rx=".1" ry=".1"/>
    <rect class="cls-2" x="194.84" y="379.55" width="13.93" height="3.1" rx=".1" ry=".1" transform="translate(-.66 .35) rotate(-.1)"/>
    <rect class="cls-2" x="294.05" y="379.75" width="14.1" height="2.9" rx=".1" ry=".1"/>
    <rect class="cls-2" x="394.01" y="379.75" width="14.01" height="2.9" rx=".1" ry=".1"/>
    <rect class="cls-2" x="294.05" y="384.67" width="14.09" height="2.91" rx=".1" ry=".1"/>
    <rect class="cls-2" x="399.56" y="379.13" width="2.91" height="13.99" rx=".14" ry=".14" transform="translate(14.19 786.47) rotate(-89.9)"/>
    <rect class="cls-2" x="194.85" y="384.68" width="13.94" height="2.9" rx=".1" ry=".1"/>
    <rect class="cls-2" x="194.84" y="389.59" width="6.57" height="2.82" rx=".1" ry=".1" transform="translate(-.68 .35) rotate(-.1)"/>
    <rect class="cls-2" x="294.05" y="389.58" width="7.35" height="2.84" rx=".1" ry=".1" transform="translate(-1.36 1.04) rotate(-.2)"/>
    <rect class="cls-2" x="399.59" y="383.99" width="2.85" height="13.99" rx=".1" ry=".1" transform="translate(9.33 791.32) rotate(-89.9)"/>
    <path class="cls-2" d="M152.82,403.22c-3.36-.37-2.85,4.89-6.94,2.65-5.61-3.08-10.86-4.56-16.96-1.52-15.19,7.55-8.44,26.88-1.26,37.21,1.05,1.51,3.87,5.73,8.47,12.68,5.33,8.04,9.85,17.04,10.57,26.65,0,.11-.07,.2-.18,.21,0,0,0,0,0,0-.67,.05-1.31,.07-1.91,.08-13.51,.07-27.03,.1-40.54,.09-.11,0-.19-.08-.19-.19v-90.11c0-.11,.09-.19,.19-.19h68.36c.24,0,.43,.19,.43,.43,0,0,0,.01,0,.02-.2,5.84-.04,12.91-.03,17.3,.04,31.92-.31,52.07,0,72.55,0,.11-.08,.19-.19,.2,0,0,0,0,0,0h-16.63c-.1,.01-.17-.06-.18-.16,0,0,0-.02,0-.02,.18-1.43,.23-2.98,.14-4.67-.27-5.01-.35-9.84-1.53-14.44-2.38-9.25-6.31-17.53-11.85-25.29-3.02-4.23-19.91-25.05-7.74-27.61,8.92-1.87,10.14,8.03,11.55,14,.91,3.85,1.95,6.41,6.27,6.03,.11,0,.19-.1,.19-.21-.02-4.63-.04-9.27-.05-13.91,0-3.29,.49-7.65,.2-11.54,0-.11-.09-.2-.21-.22Z"/>
    <path class="cls-2" d="M272.17,481.12c0,.08-.06,.14-.14,.14h-68.53c-.08,0-.14-.06-.14-.14h0v-90.22c0-.08,.06-.14,.14-.14h68.53c.08,0,.14,.06,.14,.14v90.22Zm-35.2-57.75v-13.77c0-.11,.08-.21,.2-.22,7.58-1.12,9.26,5.47,9.94,11.32,.04,.38,.25,.99,.61,1.82,.06,.13,.18,.22,.32,.23l1.12,.1c.13,.01,.24-.09,.25-.22,0,0,0-.01,0-.02l.02-16.73c0-.14-.12-.26-.26-.26h0l-23.94,.04c-.19,0-.36,.1-.46,.25-.7,1.11,.99,2.24,1.78,2.69,.64,.36,.97,.9,.98,1.64,.11,7.55,.11,15.09,.02,22.62-.11,8.93,.2,19.02,0,25.78-.02,.77-.34,1.5-.95,2.19-.56,.63-3.11,1.54-2.44,2.58,.06,.1,.17,.15,.29,.15h24.72c.12,0,.23-.1,.23-.22,.02-1.74,.05-3.47,.07-5.21,.06-4.02,.34-8.66-.12-13.1-.01-.14-.13-.24-.27-.22,0,0-.01,0-.02,0l-.65,.11c-.62,.11-1.01,.46-1.17,1.06-.68,2.52-1.33,4.92-1.96,7.2-1.1,3.98-3.36,7.52-8.1,6.53-.11-.02-.19-.12-.19-.22l.02-32.95c0-.08,.06-.14,.14-.14,0,0,0,0,.01,0,7.36,.5,4.66,11.11,8.3,10.86,.13,0,.22-.11,.22-.24v-13.34c0-.11-.09-.2-.2-.2l-8.33,.05c-.09,0-.16-.07-.16-.16h0Z"/>
    <path class="cls-2" d="M372.18,481.05c0,.12-.1,.21-.21,.21h-68.33c-.12,0-.21-.1-.21-.21v-90.07c0-.12,.1-.21,.21-.21h68.33c.12,0,.21,.1,.21,.21v90.07Zm-30.06-20.38c-.44-1.81-.15-3.78-.16-5.18-.07-14.76-.06-29.8,.02-45.12,0-.18,.13-.34,.31-.37,2.52-.52,3.64,1.9,4.01,3.95,.25,1.38,.69,3.95,1.31,7.71,.24,1.43,.75,3.48,2.39,3.89,.24,.06,.47-.09,.53-.32,0-.03,.01-.07,.01-.11v-19c0-.11-.09-.19-.19-.19h-26.66c-.11,0-.19,.09-.19,.19v19.02c0,.24,.19,.43,.43,.43,.06,0,.13-.01,.19-.04,4.77-2.29,1.5-15.44,7.69-15.46,.19,0,.35,.15,.35,.34,.11,7.05,.09,14.09-.05,21.12-.2,9.99-.22,16.49-.05,19.53,.17,2.98,.21,5.87,.12,8.67-.02,.51-.23,.92-.66,1.21-1.12,.79-3.3,1.66-3.44,3.13-.01,.09,.06,.18,.15,.19,0,0,.01,0,.02,0h16.98c.13,0,.24-.11,.23-.24,0-.02,0-.04,0-.05-.42-1.78-1.76-2.15-3.12-3.01-.11-.07-.18-.17-.21-.29Z"/>
    <rect class="cls-2" x="196.68" y="392.58" width="2.91" height="6.61" rx=".1" ry=".1" transform="translate(-198.1 593.32) rotate(-89.9)"/>
    <rect class="cls-2" x="294.05" y="394.43" width="7.34" height="2.91" rx=".1" ry=".1" transform="translate(-1.38 1.04) rotate(-.2)"/>
    <rect class="cls-2" x="394.01" y="394.43" width="14" height="2.9" rx=".1" ry=".1"/>
    <rect class="cls-2" x="394.04" y="399.36" width="13.97" height="2.91" rx=".1" ry=".1"/>
    <rect class="cls-2" x="194.85" y="399.36" width="6.58" height="2.91" rx=".1" ry=".1"/>
    <rect class="cls-2" x="294.05" y="399.36" width="7.34" height="2.91" rx=".1" ry=".1" transform="translate(-.7 .52) rotate(-.1)"/>
    <rect class="cls-2" x="296.16" y="402.16" width="3.12" height="7.33" rx=".1" ry=".1" transform="translate(-108.62 702.83) rotate(-89.9)"/>
    <rect class="cls-2" x="394.01" y="404.28" width="14" height="3.1" rx=".14" ry=".14"/>
    <rect class="cls-2" x="194.85" y="404.28" width="6.58" height="2.88" rx=".1" ry=".1" transform="translate(-2.12 1.04) rotate(-.3)"/>
    <path class="cls-4" d="M237.13,423.54l8.33-.05c.11,0,.2,.09,.2,.2v13.34c0,.13-.1,.23-.22,.24-3.65,.25-.94-10.35-8.3-10.86-.08,0-.15,.05-.15,.13,0,0,0,0,0,.01l-.02,32.95c0,.11,.08,.2,.19,.22,4.74,.99,7.01-2.55,8.1-6.53,.63-2.28,1.28-4.68,1.96-7.2,.16-.6,.56-.96,1.17-1.06l.65-.11c.13-.02,.26,.07,.29,.2,0,0,0,.01,0,.02,.47,4.45,.18,9.09,.12,13.1-.02,1.74-.05,3.47-.07,5.21,0,.12-.1,.22-.23,.22h-24.72c-.12,0-.22-.06-.29-.15-.67-1.04,1.89-1.95,2.44-2.58,.61-.69,.93-1.42,.95-2.19,.2-6.76-.1-16.86,0-25.78,.09-7.54,.09-15.08-.02-22.62-.01-.73-.34-1.28-.98-1.64-.79-.45-2.47-1.58-1.78-2.69,.1-.16,.28-.25,.46-.25l23.94-.04c.15,0,.26,.12,.26,.26h0s-.02,16.73-.02,16.73c0,.13-.1,.24-.23,.24,0,0-.01,0-.02,0l-1.12-.1c-.14-.01-.26-.1-.32-.23-.37-.83-.57-1.44-.61-1.82-.68-5.86-2.36-12.44-9.94-11.32-.11,.02-.2,.11-.2,.22v13.77c0,.09,.07,.16,.16,.16h0Z"/>
    <path class="cls-4" d="M342.34,460.96c1.36,.86,2.7,1.22,3.12,3.01,.03,.13-.05,.25-.18,.28-.02,0-.03,0-.05,0h-16.98c-.09,0-.17-.08-.17-.17,0,0,0-.01,0-.02,.14-1.48,2.31-2.34,3.44-3.13,.42-.3,.64-.7,.66-1.21,.09-2.8,.05-5.7-.12-8.67-.17-3.03-.15-9.54,.05-19.53,.14-7.03,.16-14.07,.05-21.12,0-.19-.16-.34-.35-.34-6.19,.02-2.92,13.18-7.69,15.46-.21,.1-.47,.01-.57-.2-.03-.06-.04-.12-.04-.19v-19.02c0-.11,.09-.19,.19-.19h26.66c.11,0,.19,.09,.19,.19v19c0,.24-.2,.44-.44,.44-.04,0-.07,0-.11-.01-1.65-.41-2.16-2.46-2.39-3.89-.62-3.77-1.05-6.34-1.31-7.71-.38-2.05-1.5-4.47-4.01-3.95-.18,.04-.31,.19-.31,.37-.08,15.32-.08,30.36-.02,45.12,0,1.4-.29,3.37,.16,5.18,.03,.12,.11,.23,.21,.29Z"/>
    <rect class="cls-2" x="196.58" y="407.36" width="3.1" height="6.6" rx=".1" ry=".1" transform="translate(-212.88 608.08) rotate(-89.9)"/>
    <rect class="cls-2" x="296.26" y="407.09" width="2.91" height="7.34" rx=".1" ry=".1" transform="translate(-113.56 707.77) rotate(-89.9)"/>
    <rect class="cls-2" x="394.01" y="409.31" width="14" height="2.9" rx=".1" ry=".1"/>
    <rect class="cls-2" x="194.85" y="414.23" width="6.57" height="2.91" rx=".1" ry=".1"/>
    <rect class="cls-2" x="296.27" y="412.02" width="2.91" height="7.33" rx=".1" ry=".1" transform="translate(-118.48 712.68) rotate(-89.9)"/>
    <rect class="cls-2" x="394.01" y="414.23" width="14" height="2.91" rx=".1" ry=".1"/>
    <rect class="cls-2" x="196.66" y="417.29" width="2.91" height="6.64" rx=".1" ry=".1" transform="translate(-222.84 617.99) rotate(-89.9)"/>
    <rect class="cls-2" x="294.05" y="419.16" width="7.34" height="2.91" rx=".1" ry=".1" transform="translate(-.73 .52) rotate(-.1)"/>
    <rect class="cls-2" x="394.01" y="419.16" width="14" height="2.9" rx=".12" ry=".12"/>
    <rect class="cls-2" x="194.84" y="424.08" width="6.58" height="2.91" rx=".1" ry=".1"/>
    <rect class="cls-2" x="296.27" y="421.86" width="2.91" height="7.34" rx=".1" ry=".1" transform="translate(-128.33 722.51) rotate(-89.9)"/>
    <rect class="cls-2" x="394.01" y="424.08" width="14" height="2.91" rx=".12" ry=".12"/>
    <rect class="cls-2" x="296.26" y="426.7" width="2.92" height="7.33" rx=".1" ry=".1" transform="translate(-133.16 727.33) rotate(-89.9)"/>
    <rect class="cls-2" x="194.86" y="428.92" width="6.58" height="2.91" rx=".1" ry=".1" transform="translate(-.75 .35) rotate(-.1)"/>
    <rect class="cls-2" x="394.05" y="428.91" width="13.97" height="2.9" rx=".14" ry=".14"/>
    <rect class="cls-2" x="196.42" y="432.22" width="3.38" height="6.64" rx=".14" ry=".14" transform="translate(-237.77 632.89) rotate(-89.9)"/>
    <rect class="cls-2" x="296.05" y="431.84" width="3.39" height="7.39" rx=".1" ry=".1" transform="translate(-138.82 731.76) rotate(-89.8)"/>
    <rect class="cls-2" x="394.04" y="433.84" width="13.97" height="3.38" rx=".16" ry=".16"/>
    <rect class="cls-2" x="196.66" y="437.38" width="2.91" height="6.64" rx=".1" ry=".1" transform="translate(-242.93 638.04) rotate(-89.9)"/>
    <rect class="cls-2" x="296.27" y="437.02" width="2.91" height="7.36" rx=".1" ry=".1" transform="translate(-144.01 736.88) rotate(-89.8)"/>
    <rect class="cls-2" x="394.03" y="439.25" width="13.98" height="2.9" rx=".1" ry=".1" transform="translate(-.77 .7) rotate(-.1)"/>
    <rect class="cls-2" x="194.83" y="444.17" width="6.6" height="3.11" rx=".1" ry=".1" transform="translate(-.78 .35) rotate(-.1)"/>
    <rect class="cls-2" x="399.47" y="438.72" width="3.1" height="14" rx=".1" ry=".1" transform="translate(-45.4 845.95) rotate(-89.9)"/>
    <rect class="cls-2" x="294.05" y="444.17" width="7.36" height="3.11" rx=".1" ry=".1"/>
    <path class="cls-4" d="M386.12,473.95c0,2.7-2.19,4.89-4.89,4.89h0c-2.7,0-4.89-2.19-4.89-4.89s2.19-4.89,4.89-4.89c2.7,0,4.89,2.19,4.89,4.89h0Zm-.91,.02c0-2.21-1.79-4.01-4.01-4.01h0c-2.21,0-4.01,1.79-4.01,4.01h0c0,2.21,1.79,4.01,4.01,4.01s4.01-1.79,4.01-4.01Z"/>
    <path class="cls-2" d="M385.21,473.97c0,2.21-1.79,4.01-4.01,4.01s-4.01-1.79-4.01-4.01,1.79-4.01,4.01-4.01h0c2.21,0,4.01,1.79,4.01,4.01h0Zm-5.68,2.55c1.15,.65,.68-1.42,.7-1.92,0-.11,.09-.2,.2-.2h1.45c.57-.01,.8,.26,.69,.82-.17,.84,.11,1.32,.85,1.44,.14,.02,.27-.07,.3-.21,0-.03,0-.07,0-.1-.32-1.32-.39-2.66-.2-4.01,.11-.76-.22-1.14-.99-1.14l-2.62-.02c-.38,0-.69,.3-.69,.68,0,.01,0,.02,0,.03l.13,4.33c0,.13,.07,.24,.18,.3Z"/>
    <path class="cls-4" d="M379.54,476.52c-.11-.06-.18-.18-.18-.3l-.13-4.33c-.01-.38,.28-.69,.66-.71,.01,0,.02,0,.03,0l2.62,.02c.76,0,1.09,.39,.99,1.14-.19,1.35-.12,2.69,.2,4.01,.03,.14-.05,.28-.19,.31-.03,0-.07,0-.1,0-.73-.12-1.02-.6-.85-1.44,.11-.56-.12-.84-.69-.83h-1.45c-.11,.01-.2,.1-.2,.21-.02,.5,.45,2.56-.7,1.92Zm3.09-4.21c0-.19-.15-.35-.35-.36l-1.72-.02c-.19,0-.35,.15-.36,.35h0s0,.75,0,.75c0,.19,.15,.35,.35,.36l1.72,.02c.19,0,.35-.15,.36-.35v-.75Z"/>
    <rect class="cls-2" x="380.69" y="471.46" width="1.45" height="2.43" rx=".35" ry=".35" transform="translate(-95.23 849.11) rotate(-89.4)"/>
  </g>
</svg>
