<?xml version="1.0" encoding="utf-8"?>
<!-- Generator: Adobe Illustrator 25.4.1, SVG Export Plug-In . SVG Version: 6.00 Build 0)  -->
<svg version="1.1" id="Capa_1" xmlns="http://www.w3.org/2000/svg" xmlns:xlink="http://www.w3.org/1999/xlink" x="0px" y="0px"
	 viewBox="0 0 512 318.1" style="enable-background:new 0 0 512 318.1;" xml:space="preserve">
<style type="text/css">
	.st0{fill:#022F55;}
	.st1{fill:#96D8E9;}
	.st2{fill:#48C4E5;}
</style>
<polygon class="st0" points="255.7,204.6 190.7,103.1 190.7,188.4 78.7,0 0,0 0,318.1 78.1,318.1 78.1,129.9 188.9,309.6 "/>
<polygon class="st0" points="190.8,81.8 268.7,81.8 268.7,0 190.8,0 "/>
<path class="st1" d="M425,188.7c-22.7-29.9-65.6-22.8-78.3,9.7C379.1,159.7,405.1,195.5,425,188.7z"/>
<path class="st2" d="M433.5,192.9c3.7,6.1,11,9,17.8,7.1c10.5-2.3,9.8,7.7,25.7,11.1c0.5-12.5-3.6-13.8-16-18.5
	c-12.4-3.8-21.8-9.3-27.4-20.2c-18.5-35.4-74.1-21.5-85.5,12.2C370.4,154.8,415.9,157,433.5,192.9z"/>
<path class="st0" d="M301.3,140.5l-32.8-51.6l-77.7,0l73.9,115.7l-72.1,113.5h75.5l32.9-50.5l33.4,50.5h75.5l-68.5-107.8
	c-6.8-11.1,4.6-42.4,23.8-54.6c22.7-14.5,59.2-15.8,75.7,18.3c13.5,17.6,40.5,9.9,40.5,32.9c1.1,20.2,30.2,19.6,30.2-0.9
	C509.8,88.7,364.3,46.6,301.3,140.5z"/>
<path class="st0" d="M498,244.8c0,0-6.2-3-2.4-8.8c4.2-6.4,12.4-5.7,16.1-13.6C513.6,233.3,507.3,248.7,498,244.8z"/>
</svg>
