<?xml version="1.0" encoding="utf-8"?>
<!-- Generator: Adobe Illustrator 27.0.0, SVG Export Plug-In . SVG Version: 6.00 Build 0)  -->
<svg version="1.1" id="Layer_1" xmlns="http://www.w3.org/2000/svg" xmlns:xlink="http://www.w3.org/1999/xlink" x="0px" y="0px"
	 viewBox="0 0 56.1 115.5" style="enable-background:new 0 0 56.1 115.5;" xml:space="preserve">
<g>
	<path d="M28.1,3.8L54,57.7l-25.9,54l-26-54.1c1.4-2.8,2.8-5.8,4.2-8.8C13.6,33.6,21,18.4,28.1,3.8 M28.1,0c-0.2,0-0.5,0.2-0.7,0.7
		C19.7,16.5,12.1,32.3,4.5,48.1c-1.5,3.1-2.9,6.1-4.4,9.2c-0.1,0.3-0.1,0.6,0,0.9l27.1,56.4c0.3,0.6,0.6,0.9,0.9,0.9
		c0.3,0,0.6-0.3,0.9-0.9l27-56.4c0.1-0.3,0.1-0.6,0-0.9L28.9,0.7C28.6,0.2,28.4,0,28.1,0L28.1,0z"/>
</g>
</svg>
