<?xml version="1.0" encoding="utf-8"?>
<!-- Generator: Adobe Illustrator 27.0.0, SVG Export Plug-In . SVG Version: 6.00 Build 0)  -->
<svg version="1.1" id="Layer_1" xmlns="http://www.w3.org/2000/svg" xmlns:xlink="http://www.w3.org/1999/xlink" x="0px" y="0px"
	 viewBox="0 0 56.1 115.5" style="enable-background:new 0 0 56.1 115.5;" xml:space="preserve">
<g>
	<g>
		<path d="M28.1,4.9l25.3,52.9l-25.3,52.9L2.7,57.8c0.6-1.3,1.3-2.7,1.9-4c0.7-1.5,1.4-3,2.2-4.6C13.7,34.7,20.9,19.7,28.1,4.9
			 M28.1,0c-0.2,0-0.5,0.2-0.7,0.7C19.7,16.5,12.1,32.3,4.5,48.1c-1.5,3.1-2.9,6.1-4.4,9.2c-0.1,0.3-0.1,0.6,0,0.9l27.1,56.4
			c0.3,0.6,0.6,0.9,0.9,0.9c0.3,0,0.6-0.3,0.9-0.9l27-56.4c0.1-0.3,0.1-0.6,0-0.9L28.9,0.7C28.6,0.2,28.4,0,28.1,0L28.1,0z"/>
	</g>
</g>
</svg>
