<?xml version="1.0" encoding="utf-8"?>
<!-- Generator: Adobe Illustrator 27.0.0, SVG Export Plug-In . SVG Version: 6.00 Build 0)  -->
<svg version="1.1" id="Layer_1" xmlns="http://www.w3.org/2000/svg" xmlns:xlink="http://www.w3.org/1999/xlink" x="0px" y="0px"
	 viewBox="0 0 56.1 115.5" style="enable-background:new 0 0 56.1 115.5;" xml:space="preserve">
<g>
	<g>
		<g>
			<path d="M28.1,5.4c9.8,0,19.2,6.8,22.4,16.1c0.9,2.6,1.4,7,1.4,12.9v46.5c0,7-0.7,10.8-1.3,12.6c-3.3,10.4-11.7,16.6-22.4,16.6
				c-11,0-20.1-6.9-23-17.5c-0.5-1.7-1-5.3-1-12.6V31.2c0-12.6,7.5-22.5,19-25.3C24.9,5.6,26.5,5.4,28.1,5.4 M28.1,2.9
				c-1.8,0-3.6,0.2-5.4,0.6c-13.1,3.1-21,14.2-21,27.7c0,16.3,0,32.5,0,48.8c0,6.2,0.4,10.6,1.1,13.2c3.5,12.8,14.4,19.4,25.4,19.4
				s20.9-6,24.8-18.3c0.9-2.9,1.4-7.4,1.4-13.4c0-15.5,0-31,0-46.5c0-6.3-0.5-10.8-1.5-13.7C49.3,10.2,38.9,2.9,28.1,2.9L28.1,2.9z"
				/>
		</g>
	</g>
</g>
</svg>
