<?xml version="1.0" encoding="utf-8"?>
<!-- Generator: Adobe Illustrator 27.0.0, SVG Export Plug-In . SVG Version: 6.00 Build 0)  -->
<svg version="1.1" id="Layer_1" xmlns="http://www.w3.org/2000/svg" xmlns:xlink="http://www.w3.org/1999/xlink" x="0px" y="0px"
	 viewBox="0 0 56.1 115.5" style="enable-background:new 0 0 56.1 115.5;" xml:space="preserve">
<g>
	<path d="M28.1,4.9c10,0,19.6,6.9,22.9,16.5c0.9,2.6,1.4,7,1.4,13c0,13.8,0.1,30.1,0,46.5c0,5.7-0.5,10-1.3,12.8
		c-3.4,10.6-11.9,16.9-22.9,16.9c-11.2,0-20.4-7-23.4-17.9c-0.7-2.4-1-6.7-1-12.7c-0.1-16.6,0-33,0-48.8c0.1-13,7.5-22.9,19.5-25.8
		C24.8,5.1,26.5,4.9,28.1,4.9 M28.1,2.9c-1.8,0-3.6,0.2-5.4,0.6c-13.1,3.1-21,14.2-21,27.7C1.7,47.5,1.7,63.7,1.7,80
		c0,6.2,0.4,10.6,1.1,13.2c3.5,12.8,14.4,19.4,25.4,19.4s20.9-6,24.8-18.3c0.9-2.9,1.4-7.4,1.4-13.4c0-15.5,0-31,0-46.5
		c0-6.3-0.5-10.8-1.5-13.7C49.3,10.2,38.9,2.9,28.1,2.9L28.1,2.9z"/>
</g>
</svg>
