<?xml version="1.0" encoding="utf-8"?>
<!-- Generator: Adobe Illustrator 27.0.0, SVG Export Plug-In . SVG Version: 6.00 Build 0)  -->
<svg version="1.2" baseProfile="tiny" id="Layer_1" xmlns="http://www.w3.org/2000/svg" xmlns:xlink="http://www.w3.org/1999/xlink"
	 x="0px" y="0px" viewBox="0 0 56.1 115.5" overflow="visible" xml:space="preserve">
<g>
	<path d="M28.1,2.9c-1.8,0-3.6,0.2-5.4,0.6c-13.1,3.1-21,14.2-21,27.7c0,16.3,0,32.5,0,48.8c0,6.2,0.4,10.6,1.1,13.2
		c3.5,12.8,14.4,19.4,25.4,19.4s20.9-6,24.8-18.3c0.9-2.9,1.4-7.4,1.4-13.4c0-15.5,0-31,0-46.5c0-6.3-0.5-10.8-1.5-13.7
		C49.3,10.2,38.9,2.9,28.1,2.9L28.1,2.9z"/>
</g>
</svg>
