<?xml version="1.0" encoding="utf-8"?>
<!-- Generator: Adobe Illustrator 27.0.0, SVG Export Plug-In . SVG Version: 6.00 Build 0)  -->
<svg version="1.2" baseProfile="tiny" id="Layer_1" xmlns="http://www.w3.org/2000/svg" xmlns:xlink="http://www.w3.org/1999/xlink"
	 x="0px" y="0px" viewBox="0 0 56.1 115.5" overflow="visible" xml:space="preserve">
<g>
	<path d="M17.8,5.5c-5.3,0-12.4,1.7-14.4,6.6c-0.9,2-0.7,4.1,0.6,6.1c6.4,10.1,11.2,17.5,9.6,28.9c-0.3,2.2-1.6,6.2-3.8,11.8
		c-5.9,15-10.8,33.5,4.9,44.8c5.9,4.3,12.5,6.4,19.6,6.4c2.5,0,5.1-0.3,7.8-0.8c5.6-1.1,12.2-5.4,11.2-11.8
		c-0.2-1.3-1.2-3.3-3.1-6.2c-6.8-10.2-9.2-20.1-3.9-31.6C56.4,37.5,48.2,8,19.8,5.6C19.2,5.5,18.5,5.5,17.8,5.5L17.8,5.5z"/>
</g>
</svg>
