<?xml version="1.0" encoding="utf-8"?>
<!-- Generator: Adobe Illustrator 27.0.0, SVG Export Plug-In . SVG Version: 6.00 Build 0)  -->
<svg version="1.1" id="Layer_1" xmlns="http://www.w3.org/2000/svg" xmlns:xlink="http://www.w3.org/1999/xlink" x="0px" y="0px"
	 viewBox="0 0 56.1 115.5" style="enable-background:new 0 0 56.1 115.5;" xml:space="preserve">
<style type="text/css">
	.st0{fill:none;stroke:#000000;stroke-width:0.75;stroke-miterlimit:10;}
</style>
<line class="st0" x1="0" y1="3.4" x2="56.1" y2="3.4"/>
<line class="st0" x1="0" y1="17" x2="56.1" y2="17"/>
<line class="st0" x1="0" y1="34" x2="56.1" y2="34"/>
<line class="st0" x1="0" y1="54.4" x2="56.1" y2="54.4"/>
<line class="st0" x1="0" y1="74.7" x2="56.1" y2="74.7"/>
<line class="st0" x1="0" y1="23.8" x2="56.1" y2="23.8"/>
<line class="st0" x1="0" y1="44.2" x2="56.1" y2="44.2"/>
<line class="st0" x1="0" y1="67.9" x2="56.1" y2="67.9"/>
<line class="st0" x1="0" y1="84.9" x2="56.1" y2="84.9"/>
<line class="st0" x1="0" y1="95.1" x2="56.1" y2="95.1"/>
<line class="st0" x1="0" y1="105.3" x2="56.1" y2="105.3"/>
<line class="st0" x1="0" y1="6.8" x2="56.1" y2="6.8"/>
<line class="st0" x1="0" y1="13.6" x2="56.1" y2="13.6"/>
<line class="st0" x1="0" y1="27.2" x2="56.1" y2="27.2"/>
<line class="st0" x1="0" y1="37.4" x2="56.1" y2="37.4"/>
<line class="st0" x1="0" y1="47.6" x2="56.1" y2="47.6"/>
<line class="st0" x1="0" y1="57.8" x2="56.1" y2="57.8"/>
<line class="st0" x1="0" y1="64.5" x2="56.1" y2="64.5"/>
<line class="st0" x1="0" y1="78.1" x2="56.1" y2="78.1"/>
<line class="st0" x1="0" y1="88.3" x2="56.1" y2="88.3"/>
<line class="st0" x1="0" y1="98.5" x2="56.1" y2="98.5"/>
<line class="st0" x1="0" y1="10.2" x2="56.1" y2="10.2"/>
<line class="st0" x1="0" y1="30.6" x2="56.1" y2="30.6"/>
<line class="st0" x1="0" y1="108.7" x2="56.1" y2="108.7"/>
<line class="st0" x1="0" y1="20.4" x2="56.1" y2="20.4"/>
<line class="st0" x1="0" y1="40.8" x2="56.1" y2="40.8"/>
<line class="st0" x1="0" y1="51" x2="56.1" y2="51"/>
<line class="st0" x1="0" y1="61.1" x2="56.1" y2="61.1"/>
<line class="st0" x1="0" y1="71.3" x2="56.1" y2="71.3"/>
<line class="st0" x1="0" y1="81.5" x2="56.1" y2="81.5"/>
<line class="st0" x1="0" y1="91.7" x2="56.1" y2="91.7"/>
<line class="st0" x1="0" y1="101.9" x2="56.1" y2="101.9"/>
<line class="st0" x1="0" y1="112.1" x2="56.1" y2="112.1"/>
</svg>
