<?xml version="1.0" encoding="utf-8"?>
<!-- Generator: Adobe Illustrator 25.4.1, SVG Export Plug-In . SVG Version: 6.00 Build 0)  -->
<svg version="1.1" id="Capa_1" xmlns="http://www.w3.org/2000/svg" xmlns:xlink="http://www.w3.org/1999/xlink" x="0px" y="0px"
	 viewBox="0 0 500 500" style="enable-background:new 0 0 500 500;" xml:space="preserve">
<style type="text/css">
	.st0{fill:#E1274F;}
</style>
<path class="st0" d="M294.4,1c-3.6,0-7,0.8-10.1,1.8c6.6,4.4,10.2,10.2,12,16.8c0.1,0.9,0.4,1.5,0.5,2.5c0.1,0.8,0.3,1.5,0.3,2.3
	c0.5,11.4-3,12.8-5.4,19.5c-3.7,8.7-2.7,17.9,1.8,25.4c0.4,0.9,0.9,1.9,1.5,2.8c-4.9-32.7,22.3-37.6,27.4-47.8
	c0.4-8.9-7-14.8-12.8-19C304.1,2,299.1,1,294.4,1z M335.5,8.3c-0.5,3-0.1,2.2-0.3,3.7c-0.1,1-0.1,2.3-0.3,3.4
	c-0.3,1-0.5,2.1-0.9,3.1c-0.3,1-0.6,2.1-1,3.1c-0.5,1-0.9,1.9-1.4,3c-0.4,0.5-0.6,1-1,1.5c-0.3,0.4-0.5,0.8-0.8,1.2
	c-0.6,0.9-1.3,1.8-1.9,2.6c-0.8,0.8-1.4,1.7-2.3,2.3c0,0.1,0,0.1,0,0.1c-0.8,0.6-1.5,1.4-2.5,2.1c-2.7,2.1-5.8,3.6-8.7,5.6
	c-0.9,0.6-1.8,1.2-2.6,1.9c-0.9,0.6-1.7,1.3-2.5,2.1c-0.9,0.8-1.5,1.5-2.3,2.5c-0.6,0.8-1.4,1.7-1.9,2.6c-0.6,0.9-1.3,1.8-1.8,2.7
	c-0.5,1-0.9,1.9-1.4,3c-0.4,1-0.8,1.9-1,3c-0.4,1.2-0.6,2.2-0.9,3.2c-0.1,0.5-0.1,1.2-0.3,1.7c-0.1,0.5-0.1,1-0.3,1.5
	c0,1-0.1,2.2-0.1,3.2c0,0.8,0,1.5,0.1,2.3c0,1,0.1,2.1,0.4,3.2c0.1,1,0.4,2.1,0.6,3.1c0.4,1,0.6,2.1,1,3.1c0.3,0.6,0.6,1.3,0.9,1.8
	l-29.7-11.5c-5-1.4-9.9-2.7-15-3.9c-2.7-0.6-5.4-1.3-8.1-1.9c-7.7-1.5-15.6-2.7-23.5-3.5c-0.3,0-0.4-0.1-0.6-0.1
	c-7.7-0.8-15.4-1.2-23.1-1.2c-5.7,0-11.4,0.3-16.9,0.6c-7.9,0.5-15.8,1.5-23.6,2.8c-1.9,0.3-3.9,0.6-5.8,1c-4,0.8-7.9,1.7-11.6,2.6
	c-1.9,0.5-3.9,1-5.8,1.5c-1.9,0.8-3.7,1.7-5.6,2.5c-1.4,0.6-2.8,1.3-4.3,1.9c-0.3,0.1-0.5,0.1-0.6,0.3c-1.3,0.6-2.5,1.2-3.6,1.8
	c-0.4,0.1-0.6,0.3-0.9,0.4c-1.4,0.6-2.8,1.4-4,2.1c-0.9,0.4-1.8,0.9-2.6,1.3c-0.4,0.3-0.9,0.5-1.2,0.6c-1.2,0.6-2.3,1.3-3.4,1.9
	c-1.2,0.6-2.2,1.3-3.1,1.9c-0.9,0.6-1.8,1.2-2.6,1.8c-0.1,0.1-0.3,0.1-0.4,0.3c-0.8,0.5-1.7,1.2-2.5,1.8c0,0-0.1,0.1-0.3,0.3
	c-0.6,0.5-1.3,1-1.9,1.5c-0.3,0.1-0.5,0.4-0.8,0.5c-0.6,0.5-1.3,1.2-1.9,1.7c-0.1,0.3-0.4,0.4-0.5,0.5c-0.8,0.8-1.5,1.4-2.3,2.2
	c-0.1,0-0.1,0.1-0.3,0.3c-0.8,0.6-1.5,1.4-2.3,2.2c-0.1,0.1-0.1,0.3-0.3,0.3c-0.6,0.6-1.3,1.3-1.9,2.1c-0.3,0.3-0.6,0.5-0.9,0.8
	c-0.6,0.8-1.4,1.5-2.2,2.3c-0.1,0.3-0.4,0.4-0.5,0.6c-1,1-1.9,2.1-3,3.1c-0.1,0.1-0.3,0.3-0.4,0.4c-2.1,2.2-4.3,4.4-6.6,6.3
	c-2.3,2.1-4.8,4-7.2,5.7c-2.6,1.8-5,3.4-7.7,4.9c-2.6,1.4-5.3,2.7-8.1,3.9c-2.7,1.2-5.6,2.2-8.4,3.1c-5.4,1.2-11,3.4-15.8,3.7
	c-1,0-2.2,0.3-3.2,0.4c-1.2,0.3-2.2,0.5-3.2,0.8c-1,0.4-2.1,0.8-3.1,1.2c-1,0.4-2.1,0.9-3.1,1.4c-0.9,0.6-1.9,1.2-2.8,1.8
	c-0.9,0.6-1.8,1.4-2.6,2.2c-0.9,0.6-1.8,1.5-2.6,2.3c-0.8,0.9-1.5,1.7-2.2,2.6c-0.6,1-1.4,1.9-1.9,3C5.2,149,4.5,150,4,151
	c-0.5,1.2-1,2.2-1.4,3.4c-0.4,1-0.8,2.2-1.2,3.4c-0.3,1-0.5,2.1-0.6,3.1c0,0.1-0.1,0.3-0.1,0.4c-0.3,1.2-0.3,2.7-0.4,3.5
	c-0.1,0.9-0.3,1.7-0.3,2.6c0,0.5,0,1.2,0.1,1.7c0.1,0.9,0.3,1.7,0.5,2.5c0.3,0.8,0.5,1.5,0.9,2.3c0,0.1,0,0.1,0,0.1
	c0.4,0.8,0.9,1.5,1.4,2.3c0.5,0.8,1,1.5,1.7,2.3c0.6,0.6,1.4,1.4,2.2,2.1c0.8,0.8,1.5,1.4,2.5,2.1c3.1,2.7,3.9,3.6,7.9,5.7
	c0.6,0.4,1.3,0.6,2.1,1c0.1,0,0.3,0.1,0.4,0.1c0,0.3,0,0.4,0.1,0.6c0.1,1,0.4,2.1,0.6,3.1c0.3,1.2,0.6,2.2,1,3.1
	c0.4,0.8,0.6,1.5,1,2.3c0.1,0.3,0.3,0.5,0.4,0.6c0.5,1,1,1.9,1.5,2.8c0.6,0.9,1.3,1.8,1.9,2.7c0.6,0.8,1.4,1.7,2.2,2.5
	c0.8,0.8,1.5,1.4,2.5,2.2c0,0,0.1,0.1,0.3,0.1c0.8,0.6,1.5,1.3,2.3,1.8c0.9,0.6,1.8,1.2,2.8,1.7c0.9,0.5,1.9,1,3,1.4
	c0.8,0.4,1.7,0.6,2.6,0.9c0.1,0.1,0.3,0.1,0.5,0.3c0.5,0.1,1.2,0.3,1.7,0.4c-0.4,7-0.5,13.6,0.5,15.9c1.2,2.6,6.8-5.3,12.5-14.3
	c-0.8,8.9-1.3,19.4,0,22.5c1.4,3.2,9.2-6.8,15.9-17.9C164.6,201,248.2,264.3,257,353.6c-1.7-13.9-18.9-21.7-26.7-19.8
	c-3.9,9.6-10.5,21.8-21,29.4c0.9-8.5,0.5-17.3-1.3-25.8c-2.8,11.9-8.4,23-16,32.5c-12.3,0.9-24.5-5-31-13.9c-0.5-0.4-0.6-1.2-1-1.7
	c-0.4-0.9-0.8-1.8-1-2.7c-0.4-0.9-0.6-1.8-0.8-2.7c-0.1-0.9-0.1-1.8-0.1-2.8c0-0.6,0-1.3,0-1.9c0.1-0.9,0.4-1.8,0.6-2.7
	c0.3-0.9,0.5-1.8,0.9-2.7c0.5-0.9,0.9-1.8,1.5-2.7c2.2-6.2,2.2-11.2-1.8-14.2c-0.8-0.5-1.5-0.9-2.5-1.3c-0.5-0.1-1.2-0.4-1.7-0.5
	c-0.4-0.1-0.6-0.3-1-0.4c-0.9-0.3-1.8-0.5-2.7-0.6c-0.9-0.3-1.8-0.4-2.7-0.4c-0.9-0.1-1.9-0.3-2.8-0.3c-0.6,0-1.3,0.1-1.9,0.1
	c-1,0-1.9,0.1-2.8,0.4c-0.9,0.1-1.8,0.3-2.7,0.5c-0.9,0.3-1.8,0.5-2.7,0.9c-0.9,0.4-1.7,0.8-2.6,1.2c-0.8,0.4-1.5,0.9-2.5,1.3
	c-30.1,19.6-12.1,65.6,8.4,78.9c-7.7,1.4-15.6,3.1-17.8,4.8c-0.1,0.1-0.3,0.3-0.3,0.3c5.6,3.4,11.4,6.2,17.4,8.7
	c8.3,2.7,17,5.2,20.9,6.2v0.1c10.7,2.2,21.6,3,32.5,2.3c57.2-4,104.1-47.5,112.6-104.9c0.3,1.2,0.5,2.2,0.8,3.4
	c0.4,2.3,0.9,4.8,1.2,7.2c0,0,0,0,0,0.1c0.3,1.2,0.4,2.3,0.5,3.4c0,0.3,0,0.4,0,0.5c0.1,1.2,0.3,2.3,0.3,3.4
	c0.1,1.4,0.3,2.8,0.3,4.3c0,0.6,0,1.3,0,2.1c0,0.6,0.1,1.4,0.1,2.1c0,0.8-0.1,1.5-0.1,2.3c0,0.6,0,1.3,0,1.8c0,0.9-0.1,1.7-0.1,2.6
	c0,0.5,0,1-0.1,1.7c0,0.9-0.1,1.8-0.1,2.8c-0.1,0.4-0.1,0.8-0.1,1.2c-0.1,1-0.3,1.9-0.4,3c0,0.4,0,0.8-0.1,1.2
	c-0.1,1.3-0.4,2.5-0.5,3.7v0.1v0.1c-0.3,1.2-0.5,2.5-0.8,3.6c0,0.1,0,0.3,0,0.4c-0.3,1.2-0.5,2.3-0.8,3.5c0,0.1-0.1,0.4-0.1,0.5
	c-0.3,1.2-0.5,2.3-0.9,3.5c0,0.1,0,0.3,0,0.4c-0.4,1.3-0.8,2.5-1,3.6c-0.1,0.1-0.1,0.3-0.1,0.3c-0.4,1.3-0.8,2.6-1.2,3.9
	c-0.5,1.3-0.9,2.5-1.4,3.7c-0.5,1.3-0.9,2.6-1.4,3.7c-0.5,1.3-1,2.5-1.5,3.7h-0.1c-0.5,1.2-1,2.5-1.7,3.6l0,0l0,0
	c-0.1,0.4-0.3,0.6-0.4,0.9c-0.1,0.1-0.1,0.3-0.3,0.4c-8.4,16.9-20.8,31.8-36.3,43.4c-1,0.6-2.1,1.4-3.1,2.2l0,0
	c-0.3,0.3-0.6,0.4-0.9,0.6c-0.9,0.6-1.8,1.3-2.8,1.9l0.4,0.8h0.1c1.8-0.3,3.6-0.5,5.4-0.8h0.1c3.4-0.5,6.7-1.2,10.1-1.8
	c0.9-0.1,1.9-0.4,2.8-0.6c0.6-0.1,1.2-0.3,1.8-0.4c0.9-0.1,1.8-0.4,2.7-0.5c0.8-0.3,1.5-0.4,2.3-0.6c12.9-3.1,25.4-7.4,37.4-12.4
	c-20.5,28-48,50.6-80.2,65.5c14.8-1,29.7-3.5,44-7.6c52-15.4,95.8-50.4,122-97.5c-5.3,29.8-17.2,58.2-34.7,83
	c12.5-8.3,24-17.8,34.5-28.7c28.9-30.2,47.9-68.6,54.4-109.8c4.4,20.4,5.7,41.4,3.7,62.2c93.2-130,7.7-264.8-28-300.3
	c-0.1-0.3-0.3-0.4-0.3-0.6c-0.1,0.1-0.1,0.1-0.1,0.3c0-0.1,0-0.1-0.1-0.3c0,1.5-0.1,3.1-0.3,4.6c-0.4,3-0.8,5.8-1.3,8.7
	c-0.6,2.8-1.4,5.7-2.2,8.5c-0.9,2.7-1.9,5.6-3.1,8.3c-1.2,2.6-2.5,5.3-3.9,7.9c-1.4,2.5-3,5-4.6,7.4c-1.7,2.5-3.5,4.8-5.3,7
	c-1.9,2.3-4,4.4-6.1,6.5c-1.3,1.2-2.5,2.2-3.7,3.2c-1,0.9-1.9,1.7-3,2.6c-2.3,1.8-4.6,3.5-7.2,5c-2.5,1.5-5,3.1-7.6,4.4
	c-2.7,1.3-5.4,2.5-8.1,3.6c-2.7,1-5.6,1.9-8.4,2.7c-2.8,0.8-5.8,1.4-8.7,1.9c-3,0.5-5.9,0.8-8.8,1c-2.1,0.1-4.1,0.3-6.2,0.3
	c-3,0-5.9-0.3-8.8-0.5c-3-0.3-5.9-0.6-8.8-1.3c-3-0.5-5.8-1.3-8.7-2.2h-0.1c2.8-0.3,5.7-0.5,8.5-1c3-0.5,5.8-1.2,8.7-1.9
	c2.8-0.8,5.7-1.7,8.4-2.7c2.8-1,5.6-2.3,8.1-3.6c2.7-1.3,5.2-2.7,7.7-4.3c2.5-1.7,4.9-3.4,7.2-5.2c2.3-1.8,4.5-3.7,6.6-5.8
	c2.2-1.9,4.1-4.1,6.1-6.3c1.9-2.3,3.7-4.6,5.4-7c0.3-0.4,0.5-0.9,0.8-1.3c1.3-2.1,2.6-4.1,3.7-6.2c1.4-2.6,2.7-5.2,3.9-7.9
	c1.2-2.7,2.2-5.4,3.1-8.3c0.9-2.7,1.5-5.6,2.2-8.4c0.5-3,1-5.8,1.3-8.7c0.3-3,0.5-5.9,0.5-8.8c0-2.1-0.1-4.1-0.3-6.2
	c-0.3-3-0.6-5.8-1-8.7c-0.5-3-1.2-5.8-1.9-8.7c-0.9-2.7-1.8-5.6-2.8-8.3c-1-2.7-2.3-5.4-3.6-8c-1.4-2.6-2.8-5.2-4.4-7.6
	c-1.7-2.5-3.4-4.8-5.2-7.1c-1.9-2.2-3.9-4.4-5.9-6.6c-1-1-2.2-2.2-3.4-3.2c-5.8-4.5-11.9-8.8-17.9-12.7c-0.9-0.5-1.7-0.9-2.6-1.3
	C343.5,11.1,339.5,9.6,335.5,8.3L335.5,8.3z"/>
</svg>
