<?xml version="1.0" encoding="utf-8"?>
<svg viewBox="187.3475 202.9883 256 270.9812" xmlns="http://www.w3.org/2000/svg">
  <g transform="matrix(1, 0, 0, 1, 187.3474578857422, 202.9883270263672)" style="">
    <path d="M256,45.1787083 L246.756071,190.336865 L158.373321,0 L256,45.1787083 Z M194.783035,232.875768 L128.000576,270.981182 L61.2169653,232.875768 L74.7998577,199.957744 L181.200142,199.957744 L194.783035,232.875768 Z M128.000576,72.2488146 L162.994709,157.325468 L93.005291,157.325468 L128.000576,72.2488146 Z M9.14940313,190.336865 L0,45.1787083 L97.626679,0 L9.14940313,190.336865 Z" style="fill: rgb(221, 0, 50);"/>
    <path d="M256,45.1787083 L246.756071,190.336865 L158.373321,0 L256,45.1787083 Z M194.783035,232.875768 L128.000576,270.981182 L61.2169653,232.875768 L74.7998577,199.957744 L181.200142,199.957744 L194.783035,232.875768 Z M128.000576,72.2488146 L162.994709,157.325468 L93.005291,157.325468 L128.000576,72.2488146 Z M9.14940313,190.336865 L0,45.1787083 L97.626679,0 L9.14940313,190.336865 Z" style="fill: rgb(221, 0, 50);"/>
  </g>
</svg>