<?xml version="1.0" encoding="utf-8"?>
<!-- Generator: Adobe Illustrator 27.0.0, SVG Export Plug-In . SVG Version: 6.00 Build 0)  -->
<svg version="1.2" baseProfile="tiny" id="Layer_1" xmlns="http://www.w3.org/2000/svg" xmlns:xlink="http://www.w3.org/1999/xlink"
	 x="0px" y="0px" viewBox="0 0 426.5 512" overflow="visible" xml:space="preserve">
<g>
	<path vector-effect="non-scaling-stroke" fill="none" stroke="#5A5A5A" stroke-width="2" d="M326.5,504c-0.6-4.1,0.7-7.1,3.8-9
		c9.9-5.8,12.5-14.2,9.5-24.9c-7.1-25.6-20.7-47.3-40.9-64.9c-0.3-0.2-0.6-0.4-0.9-0.3c-0.7,0.1-0.7,0.4-0.6,1
		c4,15.7,5.5,31.6,4.3,47.7c-0.4,5.2-1.3,9.3-2.8,12.2c-5.1,9.9-15.6,12.3-25.8,8.8c-22.8-7.9-43.8-23.1-59.7-41.3
		c-0.2-0.2-0.4-0.2-0.6,0c0,0,0,0,0,0c-12.3,14-26.6,25.3-43,34.1"/>
	<path vector-effect="non-scaling-stroke" fill="none" stroke="#505050" stroke-width="2" d="M170,467.5c-7.8,3.9-14.1,6.5-19,7.9
		c-9.6,2.7-19.7-1.3-23.9-10.3c-1.1-2.4-1.8-5.9-2.2-10.6c-1.3-16.2,0.1-32.2,4.1-48.1c0.5-2,0-2.3-1.6-1
		c-19.2,16.7-32.5,37.3-39.9,62c-1.5,5.1-2.2,9.1-1.9,12c0.9,10.5,9.7,17.7,20,17.6c25.8,0,51.7,0,77.5-0.1"/>
	<path vector-effect="non-scaling-stroke" fill="none" stroke="#5A5A5A" stroke-width="2" d="M183.1,497c36.9,0,73.9,0,110.9,0
		c6.2,0,10.5,0.8,11.4,7.5"/>
	<path vector-effect="non-scaling-stroke" fill="none" stroke="#505050" stroke-width="2" d="M147,70.8c2.7,4.2,2.4,8-1,11.4
		c-30,30.2-52.3,65.4-67,105.4c-0.3,0.7,0,1,0.8,0.9c32.9-6.9,66.1-11.2,99.5-12.7"/>
	<path vector-effect="non-scaling-stroke" fill="none" stroke="#5A5A5A" stroke-width="2" d="M179.3,175.7
		c55.6-2,110.6,0.8,165.2,12.2c0.3,0.1,0.4,0,0.2-0.3c-2.6-4.1-4.7-7.2-6.5-9.3c-23.6-29.5-49.4-57.5-54.6-94.4
		c-2.9-20.7,0.6-38.8,7.6-58.6c2.5-7.2-1.4-10.7-8.6-10c-31.4,3.2-60.6,12.9-87.6,28.9"/>
	<path vector-effect="non-scaling-stroke" fill="none" stroke="#505050" stroke-width="2" d="M195.1,44.2
		c-4.6,2.6-11.9,7.3-21.9,14.2c-3.7,2.6-7.3,2.1-10.7-1.5"/>
	<path vector-effect="non-scaling-stroke" fill="none" stroke="#555555" stroke-width="2" d="M199.3,219.5
		c52.5-0.5,103,3.4,154.4,16c19.6,4.8,27.6-20.4,10.7-27.4c-0.5-0.2-3.5-1-9.1-2.3c-52.2-12.4-104.4-16.4-158-15.5"/>
	<path vector-effect="non-scaling-stroke" fill="none" stroke="#4B4B4B" stroke-width="2" d="M197.3,190.3
		c-44.1,0.6-87.5,6.1-130.2,16.5c-3.6,0.9-6.2,1.8-7.7,2.8c-10.9,7.2-6.8,24.9,6.1,26.5c2,0.2,5.4-0.2,10.1-1.3
		c40.7-9.7,81.9-14.8,123.8-15.3"/>
	<path vector-effect="non-scaling-stroke" fill="none" stroke="#A0A0A0" stroke-width="2" d="M197.3,190.3c-2.3,9.4-1.7,18.5,2,27.3
		c0.1,0.2,0.1,0.6,0.1,0.9l-0.1,0.9"/>
	<path vector-effect="non-scaling-stroke" fill="none" stroke="#686868" stroke-width="2" d="M52.6,247.1
		c-12.7-9.4-17.5-20.1-12.8-36.1c0.1-0.3,0-0.6-0.3-0.7c-4.3-2.4-11.6-7.1-16.3-6.7c-7.2,0.5-8.1,6.3-8.1,12.7c0,16.9,0,33.8,0,50.7
		c0,9.7,0.5,16.4,1.3,19.9c4.5,18.8,20.6,32.3,39.9,33.8c0.2,0,0.4-0.1,0.4-0.3c0,0,0-0.1,0-0.1c-7.8-23.9-9.1-48.1-4-72.8
		C52.8,247.4,52.7,247.2,52.6,247.1"/>
	<path vector-effect="non-scaling-stroke" fill="none" stroke="#686868" stroke-width="2" d="M386.5,211c5.3,13.8-0.2,28.3-12.4,36
		c-0.3,0.2-0.4,0.4-0.4,0.7c5.1,24.6,3.8,48.7-4,72.5c0,0.2,0.1,0.3,0.3,0.4c0,0,0.1,0,0.1,0c24.4-1.5,41.2-21.9,41.2-45.9
		c0-19.7,0.1-39.4,0-59.1c0-6.2-1.2-11.2-7.9-12.1c-4.5-0.6-12.8,4.6-16.8,6.8C386.5,210.4,386.4,210.7,386.5,211"/>
	<path vector-effect="non-scaling-stroke" fill="none" stroke="#6F6F6F" stroke-width="2" d="M67.2,252
		C50.5,335.8,119,403.5,198,410.7c32.7,3,63.1-3.1,91.2-18.2c50.9-27.4,81.8-82.5,70-140.6c-0.1-0.3-0.3-0.5-0.6-0.5
		c-1.8-0.1-4.1-0.1-5.7-0.5c-34.4-8.7-69.4-13.9-104.9-15.6c-58.7-2.8-115.7,1-172.6,15.1c-2.4,0.6-5.1,0.7-7.6,1.1
		C67.4,251.5,67.2,251.7,67.2,252"/>
	<path vector-effect="non-scaling-stroke" fill="none" stroke="#808080" stroke-width="2" d="M166.9,451.8
		c12.1-6.8,22.8-15.3,32-25.4c0.2-0.2,0.2-0.4-0.2-0.4c-11.7-1.1-23.2-3.1-34.6-6.3"/>
	<path vector-effect="non-scaling-stroke" fill="none" stroke="#797979" stroke-width="2" d="M164.2,419.7l-20.8-7.5
		c-0.2-0.1-0.4,0-0.5,0.2c0,0,0,0,0,0c-3.3,14.1-4.3,28.2-3,42.3c0.4,3.8,1.8,7.6,6.3,6.4c6.2-1.7,13.1-4.8,20.8-9.4"/>
	<path vector-effect="non-scaling-stroke" fill="none" stroke="#F9F9F9" stroke-width="2" d="M164.2,419.7
		c-0.8,10.9,0.1,21.6,2.7,32.1"/>
	<path vector-effect="non-scaling-stroke" fill="none" stroke="#808080" stroke-width="2" d="M233.5,432.3
		c13.7,13,29.1,22.6,46.1,28.7c5,1.8,6.7-2.1,7.1-6.3c1.3-14.1,0.3-28.1-3-42.1c-0.1-0.3-0.3-0.5-0.5-0.4c0,0,0,0-0.1,0
		c-17.6,7.5-35.9,12.1-55,13.7c-0.3,0-0.4,0.2-0.1,0.5C229,427.9,230.9,429.9,233.5,432.3"/>
	<path vector-effect="non-scaling-stroke" fill="none" stroke="#ABABAB" stroke-width="2" d="M179.3,175.7c0.1-0.9,0.1-2.2-0.2-4
		c-3.7-21.1-4.2-42.8-1.7-65.2c2.5-21.7,8.4-42.5,17.8-62.3"/>
	<path vector-effect="non-scaling-stroke" fill="none" stroke="#ABABAB" stroke-width="2" d="M249.9,89.4c2.8-2.8,2.8-7.3,0-10.1
		c0,0,0,0,0,0l-0.4-0.4c-2.8-2.8-7.3-2.8-10.1,0c0,0,0,0,0,0l-11.1,11.1c-2.8,2.8-2.8,7.3,0,10.1c0,0,0,0,0,0l0.4,0.4
		c2.8,2.8,7.3,2.8,10.1,0c0,0,0,0,0,0L249.9,89.4"/>
	<path vector-effect="non-scaling-stroke" fill="none" stroke="#ABABAB" stroke-width="2" d="M250.7,122.1c-2.8-2.8-7.4-2.8-10.2,0
		c0,0,0,0,0,0l-17,17c-2.8,2.8-2.8,7.4,0,10.2l0.3,0.3c2.8,2.8,7.4,2.8,10.2,0c0,0,0,0,0,0l17-17c2.8-2.8,2.8-7.4,0-10.2
		L250.7,122.1"/>
	<path vector-effect="non-scaling-stroke" fill="none" stroke="#CCCCCC" stroke-width="2" d="M128.2,280.5
		c-9.9-2.9-19.4-2.7-28.7,0.5c-30.7,10.8-27.4,46.1,3.2,53.9c15,3.8,34.6,0.1,43.7-13.8c7.9-12,4.4-26.9-7.5-34.9"/>
	<path vector-effect="non-scaling-stroke" fill="none" stroke="#6F6F6F" stroke-width="2" d="M139,286.2c2.7-1.6,4-3.5,4-5.8
		c0-4.7,1.1-16-1.1-19.8c-3.3-5.6-12.5-4.2-13.6,2.3c-0.6,3.5-0.6,9.4-0.1,17.4"/>
	<path vector-effect="non-scaling-stroke" fill="none" stroke="#5D5D5D" stroke-width="2" d="M139,286.2c-5.6,1.7-9.2-0.2-10.8-5.8"
		/>
	<path vector-effect="non-scaling-stroke" fill="none" stroke="#CCCCCC" stroke-width="2" d="M287.4,286.2
		c-13.4,10.2-16,26.9-4,39.1c10.9,11,28,13.6,42.4,9.1c31-9.7,29.5-46-1.3-54.1c-8.6-2.2-17.3-2.3-26.1-0.2"/>
	<path vector-effect="non-scaling-stroke" fill="none" stroke="#6F6F6F" stroke-width="2" d="M298.4,280c0.2-5,1.3-16.8-2-20.6
		c-3.1-3.6-10-2.7-12.1,1.7c-0.5,1.2-0.8,3.1-0.8,5.8c0,6-1.9,15.4,3.9,19.2"/>
	<path vector-effect="non-scaling-stroke" fill="none" stroke="#5D5D5D" stroke-width="2" d="M298.4,280c-1.3,5.9-5,7.9-11,6.1"/>
	<path vector-effect="non-scaling-stroke" fill="none" stroke="#6F6F6F" stroke-width="2" d="M241,280.5c1.2-5.2-3.9-10.1-9.1-8.6
		c-0.9,0.3-2.4,1.3-4.6,3.1c-10,8.5-20,7.9-30.1-1.7c-5-4.8-13.4,1.1-11.5,7.5c1.9,6.7,13,12.6,19.1,14c11.9,2.8,22.6,0.2,32.1-8
		C239.1,284.9,240.5,282.8,241,280.5"/>
	<path vector-effect="non-scaling-stroke" fill="none" stroke="#ABABAB" stroke-width="2" d="M170,467.5c3.4,10.2,7.8,20,13.1,29.5"
		/>
</g>
<path d="M283.8,0h3.5c11.3,1.5,20,10.5,19.8,22c-0.1,5-2.6,11-4.3,16.2c-8.8,26.3-6.6,51.6,6.6,75.7c15.4,28.3,39.8,48.4,55.6,78.2
	c0.2,0.4,0.5,0.6,0.7,0.7c4.2,1,7.9,2.8,11.4,5.4c0.2,0.1,0.5,0.1,0.9-0.1c12.7-6.9,22.6-13.2,34.6-7.6c8.9,4.1,14,12.6,14,22.5
	c0,18.4,0,36.8,0,55.2c0,9.1-0.4,15.7-1.3,19.9c-5.2,25.7-26.6,45.3-53.2,47.4c-2.7,0.2-5.4,0.4-8.1,0.6c-0.3,0-0.6,0.2-0.7,0.5
	c-11.8,24.1-28.8,43.7-50.7,59c-0.4,0.3-0.5,0.9-0.3,1.3c0,0,0.1,0.1,0.1,0.1c21,19.6,35.1,43.2,42.4,70.7
	c4.2,15.9-1.3,30.8-15.4,39.5c-5.4,3.3-9.7,2.3-12.8-3.2c-0.6-4.1,0.7-7.1,3.8-9c9.9-5.8,12.5-14.2,9.5-24.9
	c-7.1-25.6-20.7-47.3-40.9-64.9c-0.3-0.2-0.6-0.4-0.9-0.3c-0.7,0.1-0.7,0.4-0.6,1c4,15.7,5.5,31.6,4.3,47.7
	c-0.4,5.2-1.3,9.3-2.8,12.2c-5.1,9.9-15.6,12.3-25.8,8.8c-22.8-7.9-43.8-23.1-59.7-41.3c-0.2-0.2-0.4-0.2-0.6,0c0,0,0,0,0,0
	c-12.3,14-26.6,25.3-43,34.1c-7.8,3.9-14.1,6.5-19,7.9c-9.6,2.7-19.7-1.3-23.9-10.3c-1.1-2.4-1.8-5.9-2.2-10.6
	c-1.3-16.2,0.1-32.2,4.1-48.1c0.5-2,0-2.3-1.6-1c-19.2,16.7-32.5,37.3-39.9,62c-1.5,5.1-2.2,9.1-1.9,12c0.9,10.5,9.7,17.7,20,17.6
	c25.8,0,51.7,0,77.5-0.1c36.9,0,73.9,0,110.9,0c6.2,0,10.5,0.8,11.4,7.5c-0.5,4.1-2.8,6.6-6.8,7.5H103
	c-17.4-1.5-31.4-14.4-32.6-31.9c-0.3-4.1,0.5-9.3,2.3-15.5c7.6-26.3,21.4-48.8,41.6-67.6c0.3-0.3,0.3-0.8,0-1.1c0,0-0.1-0.1-0.1-0.1
	c-22.1-15.4-39.1-35.1-51-59.3c-0.1-0.3-0.4-0.5-0.7-0.5c-23.6,0.2-41.5-9.4-53.8-28.6C0.9,295.1,0,283.2,0,267
	c0-15.3,0-30.5,0-45.8c0-8.4,0.5-14.1,1.6-17.3c4.2-12.4,18.6-18.7,31.1-13.9c2,0.7,7.3,3.4,16.1,8.1c0.3,0.2,0.6,0.2,0.8,0
	c3.5-2.6,7.4-4.4,11.6-5.4c0.2,0,0.4-0.4,0.5-0.8c14.9-45.4,39-85,72.2-119c4.2-4.3,7.9-6.2,13-2.2c2.7,4.2,2.4,8-1,11.4
	c-30,30.2-52.3,65.4-67,105.4c-0.3,0.7,0,1,0.8,0.9c32.9-6.9,66.1-11.2,99.5-12.7c55.6-2,110.6,0.8,165.2,12.2
	c0.3,0.1,0.4,0,0.2-0.3c-2.6-4.1-4.7-7.2-6.5-9.3c-23.6-29.5-49.4-57.5-54.6-94.4c-2.9-20.7,0.6-38.8,7.6-58.6
	c2.5-7.2-1.4-10.7-8.6-10c-31.4,3.2-60.6,12.9-87.6,28.9c-4.6,2.6-11.9,7.3-21.9,14.2c-3.7,2.6-7.3,2.1-10.7-1.5
	c-2.9-5-1-8.3,3.4-11.6C200.9,19.5,240.2,4.4,283.8,0z M199.3,219.5c52.5-0.5,103,3.4,154.4,16c19.6,4.8,27.6-20.4,10.7-27.4
	c-0.5-0.2-3.5-1-9.1-2.3c-52.2-12.4-104.4-16.4-158-15.5c-44.1,0.6-87.5,6.1-130.2,16.5c-3.6,0.9-6.2,1.8-7.7,2.8
	c-10.9,7.2-6.8,24.9,6.1,26.5c2,0.2,5.4-0.2,10.1-1.3C116.2,225.1,157.4,220,199.3,219.5z M52.6,247.1
	c-12.7-9.4-17.5-20.1-12.8-36.1c0.1-0.3,0-0.6-0.3-0.7c-4.3-2.4-11.6-7.1-16.3-6.7c-7.2,0.5-8.1,6.3-8.1,12.7c0,16.9,0,33.8,0,50.7
	c0,9.7,0.5,16.4,1.3,19.9c4.5,18.8,20.6,32.3,39.9,33.8c0.2,0,0.4-0.1,0.4-0.3c0,0,0-0.1,0-0.1c-7.8-23.9-9.1-48.1-4-72.8
	C52.8,247.4,52.7,247.2,52.6,247.1z M386.5,211c5.3,13.8-0.2,28.3-12.4,36c-0.3,0.2-0.4,0.4-0.4,0.7c5.1,24.6,3.8,48.7-4,72.5
	c0,0.2,0.1,0.3,0.3,0.4c0,0,0.1,0,0.1,0c24.4-1.5,41.2-21.9,41.2-45.9c0-19.7,0.1-39.4,0-59.1c0-6.2-1.2-11.2-7.9-12.1
	c-4.5-0.6-12.8,4.6-16.8,6.8C386.5,210.4,386.4,210.7,386.5,211z M67.2,252C50.5,335.8,119,403.5,198,410.7
	c32.7,3,63.1-3.1,91.2-18.2c50.9-27.4,81.8-82.5,70-140.6c-0.1-0.3-0.3-0.5-0.6-0.5c-1.8-0.1-4.1-0.1-5.7-0.5
	c-34.4-8.7-69.4-13.9-104.9-15.6c-58.7-2.8-115.7,1-172.6,15.1c-2.4,0.6-5.1,0.7-7.6,1.1C67.4,251.5,67.2,251.7,67.2,252z
	 M166.9,451.8c12.1-6.8,22.8-15.3,32-25.4c0.2-0.2,0.2-0.4-0.2-0.4c-11.7-1.1-23.2-3.1-34.6-6.3l-20.8-7.5c-0.2-0.1-0.4,0-0.5,0.2
	c0,0,0,0,0,0c-3.3,14.1-4.3,28.2-3,42.3c0.4,3.8,1.8,7.6,6.3,6.4C152.4,459.5,159.3,456.4,166.9,451.8z M233.5,432.3
	c13.7,13,29.1,22.6,46.1,28.7c5,1.8,6.7-2.1,7.1-6.3c1.3-14.1,0.3-28.1-3-42.1c-0.1-0.3-0.3-0.5-0.5-0.4c0,0,0,0-0.1,0
	c-17.6,7.5-35.9,12.1-55,13.7c-0.3,0-0.4,0.2-0.1,0.5C229,427.9,230.9,429.9,233.5,432.3z"/>
<path fill="#B4B4B4" d="M179.3,175.7c0.1-0.9,0.1-2.2-0.2-4c-3.7-21.1-4.2-42.8-1.7-65.2c2.5-21.7,8.4-42.5,17.8-62.3
	c27-16,56.2-25.6,87.6-28.9c7.2-0.8,11.1,2.8,8.6,10c-7,19.7-10.5,37.8-7.6,58.6c5.2,36.9,31,64.9,54.6,94.4
	c1.7,2.1,3.9,5.2,6.5,9.3c0.2,0.3,0.1,0.4-0.2,0.3C289.9,176.5,234.9,173.8,179.3,175.7z M249.9,89.4c2.8-2.8,2.8-7.3,0-10.1
	c0,0,0,0,0,0l-0.4-0.4c-2.8-2.8-7.3-2.8-10.1,0c0,0,0,0,0,0l-11.1,11.1c-2.8,2.8-2.8,7.3,0,10.1c0,0,0,0,0,0l0.4,0.4
	c2.8,2.8,7.3,2.8,10.1,0c0,0,0,0,0,0L249.9,89.4z M250.7,122.1c-2.8-2.8-7.4-2.8-10.2,0c0,0,0,0,0,0l-17,17c-2.8,2.8-2.8,7.4,0,10.2
	l0.3,0.3c2.8,2.8,7.4,2.8,10.2,0c0,0,0,0,0,0l17-17c2.8-2.8,2.8-7.4,0-10.2L250.7,122.1z"/>
<path fill="#A0A0A0" d="M195.1,44.2c-9.4,19.8-15.3,40.6-17.8,62.3c-2.5,22.4-2,44.2,1.7,65.2c0.3,1.8,0.4,3.1,0.2,4
	c-33.4,1.5-66.6,5.8-99.5,12.7c-0.8,0.2-1-0.1-0.8-0.9c14.7-40,37-75.1,67-105.4c3.4-3.5,3.8-7.3,1-11.4L162.5,57
	c3.4,3.6,6.9,4.1,10.7,1.5C183.2,51.5,190.5,46.8,195.1,44.2z"/>
<path fill="#A0A0A0" d="M249.5,79l0.4,0.4c2.8,2.8,2.8,7.3,0,10.1l-11.1,11.1c-2.8,2.8-7.3,2.8-10.1,0l-0.4-0.4
	c-2.8-2.8-2.8-7.3,0-10.1L239.4,79C242.2,76.2,246.7,76.2,249.5,79z"/>
<path fill="#A0A0A0" d="M223.5,139.1l17-17c2.8-2.8,7.4-2.8,10.2,0l0.3,0.3c2.8,2.8,2.8,7.4,0,10.2l-17,17c-2.8,2.8-7.4,2.8-10.2,0
	l-0.3-0.3C220.7,146.5,220.7,141.9,223.5,139.1z"/>
<path fill="#959595" d="M197.3,190.3c-2.3,9.4-1.7,18.5,2,27.3c0.1,0.2,0.1,0.6,0.1,0.9l-0.1,0.9c-41.9,0.6-83.1,5.7-123.8,15.3
	c-4.7,1.1-8.1,1.6-10.1,1.3c-12.9-1.6-17-19.3-6.1-26.5c1.5-1,4.1-2,7.7-2.8C109.8,196.4,153.2,190.9,197.3,190.3z"/>
<path fill="#AAAAAA" d="M197.3,190.3c53.6-0.9,105.8,3.1,158,15.5c5.6,1.3,8.6,2.1,9.1,2.3c16.9,6.9,9,32.2-10.7,27.4
	c-51.4-12.6-101.9-16.5-154.4-16l0.1-0.9c0-0.4,0-0.7-0.1-0.9C195.6,208.8,194.9,199.7,197.3,190.3z"/>
<path fill="#CFCFCF" d="M39.8,211c-4.7,16,0.1,26.7,12.8,36.1c0.1,0.1,0.2,0.2,0.2,0.3c-5.1,24.6-3.8,48.9,4,72.8
	c0.1,0.2-0.1,0.3-0.3,0.4c0,0-0.1,0-0.1,0c-19.3-1.5-35.5-15.1-39.9-33.8c-0.8-3.5-1.3-10.2-1.3-19.9c0-16.9,0-33.8,0-50.7
	c0-6.4,1-12.1,8.1-12.7c4.8-0.3,12.1,4.4,16.3,6.7C39.7,210.4,39.9,210.7,39.8,211z"/>
<path fill="#CFCFCF" d="M374.2,247.1c12.2-7.7,17.6-22.3,12.4-36c-0.1-0.3,0-0.6,0.3-0.7c4-2.2,12.3-7.4,16.8-6.8
	c6.7,0.9,7.9,5.9,7.9,12.1c0,19.7,0,39.4,0,59.1c0,24-16.8,44.4-41.2,45.9c-0.2,0-0.4-0.1-0.4-0.3c0,0,0-0.1,0-0.1
	c7.8-23.8,9.1-48,4-72.5C373.8,247.5,373.9,247.2,374.2,247.1z"/>
<path fill="#DEDEDE" d="M198,410.7C119,403.5,50.5,335.8,67.2,252c0.1-0.3,0.3-0.5,0.6-0.6c2.5-0.4,5.2-0.5,7.6-1.1
	c56.9-14.1,114-17.9,172.6-15.1c35.5,1.7,70.5,6.9,104.9,15.6c1.7,0.4,4,0.4,5.7,0.5c0.3,0,0.5,0.2,0.6,0.5
	c11.8,58.1-19.1,113.2-70,140.6C261.1,407.6,230.7,413.6,198,410.7z M128.2,280.5c-9.9-2.9-19.4-2.7-28.7,0.5
	c-30.7,10.8-27.4,46.1,3.2,53.9c15,3.8,34.6,0.1,43.7-13.8c7.9-12,4.4-26.9-7.5-34.9c2.7-1.6,4-3.5,4-5.8c0-4.7,1.1-16-1.1-19.8
	c-3.3-5.6-12.5-4.2-13.6,2.3C127.8,266.6,127.7,272.4,128.2,280.5z M287.4,286.2c-13.4,10.2-16,26.9-4,39.1
	c10.9,11,28,13.6,42.4,9.1c31-9.7,29.5-46-1.3-54.1c-8.6-2.2-17.3-2.3-26.1-0.2c0.2-5,1.3-16.8-2-20.6c-3.1-3.6-10-2.7-12.1,1.7
	c-0.5,1.2-0.8,3.1-0.8,5.8C283.5,273,281.6,282.3,287.4,286.2z M241,280.5c1.2-5.2-3.9-10.1-9.1-8.6c-0.9,0.3-2.4,1.3-4.6,3.1
	c-10,8.5-20,7.9-30.1-1.7c-5-4.8-13.4,1.1-11.5,7.5c1.9,6.7,13,12.6,19.1,14c11.9,2.8,22.6,0.2,32.1-8
	C239.1,284.9,240.5,282.8,241,280.5z"/>
<path d="M139,286.2c-5.6,1.7-9.2-0.2-10.8-5.8c-0.5-8.1-0.5-13.9,0.1-17.4c1.1-6.5,10.2-7.9,13.6-2.3c2.2,3.8,1.1,15.1,1.1,19.8
	C143,282.7,141.6,284.6,139,286.2z"/>
<path d="M298.4,280c-1.3,5.9-5,7.9-11,6.1c-5.8-3.9-3.9-13.2-3.9-19.2c0-2.7,0.3-4.6,0.8-5.8c2-4.4,9-5.3,12.1-1.7
	C299.7,263.2,298.6,275,298.4,280z"/>
<path d="M231.9,271.9c5.2-1.5,10.3,3.4,9.1,8.6c-0.5,2.2-1.9,4.3-4.2,6.3c-9.5,8.2-20.2,10.8-32.1,8c-6.1-1.5-17.1-7.3-19.1-14
	c-1.9-6.5,6.5-12.3,11.5-7.5c10.1,9.6,20.2,10.2,30.1,1.7C229.4,273.2,231,272.1,231.9,271.9z"/>
<path fill="#B9B9B9" d="M128.2,280.5c1.5,5.6,5.1,7.5,10.8,5.8c11.8,8.1,15.3,23,7.5,34.9c-9.1,13.8-28.7,17.6-43.7,13.8
	c-30.6-7.8-33.9-43.1-3.2-53.9C108.8,277.8,118.3,277.6,128.2,280.5z"/>
<path fill="#B9B9B9" d="M287.4,286.2c6,1.8,9.6-0.2,11-6.1c8.8-2.1,17.5-2,26.1,0.2c30.9,8.1,32.3,44.4,1.3,54.1
	c-14.4,4.5-31.5,1.9-42.4-9.1C271.5,313.1,274.1,296.4,287.4,286.2z"/>
<path fill="#A0A0A0" d="M170,467.5c3.4,10.2,7.8,20,13.1,29.5c-25.9,0-51.7,0.1-77.5,0.1c-10.3,0-19.1-7.2-20-17.6
	c-0.2-2.9,0.4-6.9,1.9-12c7.4-24.6,20.7-45.3,39.9-62c1.6-1.4,2.1-1,1.6,1c-4,15.8-5.4,31.9-4.1,48.1c0.4,4.7,1.1,8.3,2.2,10.6
	c4.2,9,14.4,13.1,23.9,10.3C155.9,474,162.2,471.4,170,467.5z"/>
<path fill="#B4B4B4" d="M326.5,504l-21.2,0.5c-0.8-6.8-5.1-7.5-11.4-7.5c-37,0-73.9,0-110.9,0c-5.3-9.4-9.6-19.3-13.1-29.5
	c16.4-8.8,30.7-20.2,43-34.1c0.2-0.2,0.4-0.2,0.6,0c0,0,0,0,0,0c15.9,18.2,36.8,33.4,59.7,41.3c10.2,3.5,20.7,1,25.8-8.8
	c1.5-2.9,2.4-7,2.8-12.2c1.1-16.1-0.3-32-4.3-47.7c-0.2-0.6-0.2-0.9,0.6-1c0.3,0,0.6,0.1,0.9,0.3c20.1,17.6,33.8,39.3,40.9,64.9
	c3,10.7,0.4,19.1-9.5,24.9C327.2,496.9,325.9,499.9,326.5,504z"/>
<path fill="#F1F1F1" d="M164.2,419.7c-0.8,10.9,0.1,21.6,2.7,32.1c-7.6,4.6-14.5,7.7-20.8,9.4c-4.5,1.2-6-2.6-6.3-6.4
	c-1.3-14.1-0.2-28.2,3-42.3c0.1-0.2,0.3-0.3,0.5-0.3c0,0,0,0,0,0L164.2,419.7z"/>
<path fill="#FFFFFF" d="M233.5,432.3c-2.6-2.4-4.4-4.4-5.6-5.9c-0.2-0.3-0.2-0.5,0.1-0.5c19.1-1.6,37.4-6.1,55-13.7
	c0.2-0.1,0.5,0,0.6,0.3c0,0,0,0.1,0,0.1c3.4,14,4.4,28,3,42.1c-0.4,4.2-2.1,8.1-7.1,6.3C262.5,454.9,247.2,445.3,233.5,432.3z"/>
<path fill="#FFFFFF" d="M164.2,419.7c11.4,3.1,22.9,5.2,34.6,6.3c0.3,0,0.4,0.2,0.2,0.4c-9.2,10.1-19.9,18.6-32,25.4
	C164.3,441.3,163.4,430.6,164.2,419.7z"/>
</svg>
