<?xml version="1.0" encoding="utf-8"?>
<!-- Generator: Adobe Illustrator 25.4.1, SVG Export Plug-In . SVG Version: 6.00 Build 0)  -->
<svg version="1.1" id="Capa_1" xmlns="http://www.w3.org/2000/svg" xmlns:xlink="http://www.w3.org/1999/xlink" x="0px" y="0px"
	 viewBox="0 0 500 74.2" style="enable-background:new 0 0 500 74.2;" xml:space="preserve">
<style type="text/css">
	.st0{fill:#1B1B1B;}
	.st1{fill:#545454;}
</style>
<path class="st0" d="M7.2,4.7c0.1-0.6,0.3-1.1,0.7-1.5s0.9-0.6,1.6-0.6h12c1.1,0,1.9,0.6,2.2,1.8l17,47.3c2.8-7.9,5.7-15.8,8.6-23.6
	c2.9-7.9,5.7-15.7,8.5-23.6C58.2,3.2,59,2.6,60,2.6h12c0.6,0,1.2,0.2,1.6,0.6s0.6,0.9,0.6,1.5c1.2,11.2,2.4,22.4,3.6,33.6
	c1.2,11.1,2.4,22.3,3.7,33.5v0.1c0,1.3-0.7,2-2.1,2h-9.3c-1.4,0-2.2-0.7-2.3-2.1l-4.9-45.4l-16,44.2c-0.2,0.4-0.4,0.9-0.8,1.2
	c-0.4,0.4-0.7,0.6-1.1,0.6h-8.6c-0.4,0-0.8-0.2-1.2-0.6c-0.3-0.4-0.6-0.8-0.8-1.3c-2.6-7.4-5.3-14.7-7.9-22
	c-2.7-7.4-5.4-14.7-8-22.1l-4.9,45.4c0,1.4-0.7,2.1-2.2,2.1H2.1c-1.4,0-2.1-0.7-2.1-2.1L7.2,4.7z M93.8,4.7c0-0.6,0.2-1.1,0.5-1.5
	c0.4-0.4,0.9-0.6,1.6-0.6h9.5c0.5,0,1.1,0.2,1.5,0.6c0.5,0.4,0.7,0.9,0.7,1.5v67.1c0,1.4-0.8,2.1-2.3,2.1h-9.5
	c-1.4,0-2.1-0.7-2.1-2.1L93.8,4.7L93.8,4.7z M123.3,4.7c0-0.6,0.2-1.1,0.6-1.5s0.9-0.6,1.6-0.6h9.8c0.2,0,0.5,0,0.7,0.1
	c0.3,0.1,0.5,0.2,0.7,0.4s0.4,0.4,0.6,0.7c0.2,0.3,0.2,0.5,0.2,0.9v28.5L164.4,4c0.6-1,1.3-1.5,2.1-1.5h13.7c0.9,0,1.3,0.2,1.3,0.6
	c0,0.3-0.2,0.6-0.6,1l-25.4,29.5L185.2,72c0.5,0.6,0.7,1.1,0.7,1.4c0,0.4-0.3,0.5-1,0.5h-14.6c-0.8,0-1.5-0.5-2.1-1.5l-22.6-28.8
	l-8.2,8.5v19.7c0,1.4-0.8,2.1-2.3,2.1h-9.8c-1.4,0-2.1-0.7-2.1-2.1L123.3,4.7L123.3,4.7z M195.3,4.8c0-1.5,0.7-2.3,2.1-2.3h29.4
	c3.2,0,6.3,0.6,9.1,1.8s5.3,2.9,7.4,4.9c2.1,2.1,3.7,4.5,4.9,7.3s1.8,5.8,1.8,9c0,2.2-0.3,4.3-0.9,6.3c-0.6,2-1.5,3.9-2.5,5.6
	c-1.1,1.7-2.4,3.3-3.9,4.7s-3.2,2.6-5,3.5l12.5,24.6c0.1,0.3,0.2,0.6,0.3,1c0.2,0.3,0.2,0.7,0.2,1c0,1-0.6,1.4-1.7,1.4h-11.1
	c-1.2,0-1.9-0.6-2.3-1.8L224,49c-0.5,0-1.1,0-1.7,0c-0.6,0-1.4,0-2.5,0h-10.6v22.7c0,1.4-0.7,2.1-2.2,2.1h-9.7
	c-0.6,0-1.2-0.2-1.5-0.5c-0.4-0.3-0.6-0.9-0.6-1.6L195.3,4.8L195.3,4.8z M235.8,25.7c0-1.4-0.3-2.7-0.8-4s-1.2-2.5-2.2-3.5
	c-0.9-1-2-1.9-3.3-2.5s-2.7-1-4.2-1.1c-1.1,0-2.2-0.1-3.3-0.1s-2.2,0-3.3,0h-9.5v22.3h14.5c0.6,0,1.2,0,1.8-0.1
	c1.5-0.1,2.9-0.4,4.2-1.1c1.3-0.6,2.3-1.4,3.2-2.4s1.6-2.2,2.1-3.4C235.6,28.5,235.8,27.2,235.8,25.7L235.8,25.7z"/>
<path class="st1" d="M348.1,4.8c0-1.5,0.7-2.3,2.1-2.3h29.4c3.2,0,6.3,0.6,9.1,1.8c2.8,1.2,5.3,2.9,7.4,4.9c2.1,2.1,3.7,4.5,4.9,7.3
	c1.2,2.8,1.8,5.8,1.8,9c0,2.2-0.3,4.3-0.9,6.3s-1.5,3.9-2.5,5.6c-1.1,1.7-2.4,3.3-3.9,4.7s-3.2,2.6-5,3.5L403,70.2
	c0.1,0.3,0.2,0.6,0.3,1c0.2,0.3,0.2,0.7,0.2,1c0,1-0.6,1.4-1.7,1.4h-11.1c-1.2,0-1.9-0.6-2.3-1.8L376.7,49c-0.5,0-1.1,0-1.7,0
	s-1.4,0-2.4,0H362v22.7c0,1.4-0.7,2.1-2.2,2.1h-9.7c-0.6,0-1.2-0.2-1.5-0.5c-0.4-0.3-0.6-0.9-0.6-1.6L348.1,4.8L348.1,4.8z
	 M388.5,25.7c0-1.4-0.3-2.7-0.8-4s-1.2-2.5-2.2-3.5c-0.9-1-2-1.9-3.3-2.5s-2.7-1-4.2-1.1c-1.1,0-2.2-0.1-3.3-0.1c-1.1,0-2.2,0-3.3,0
	H362v22.3h14.5c0.6,0,1.2,0,1.8-0.1c1.5-0.1,2.9-0.4,4.2-1.1c1.3-0.6,2.3-1.4,3.2-2.4c0.9-1,1.6-2.2,2.1-3.4
	C388.3,28.5,388.5,27.2,388.5,25.7L388.5,25.7z M418.9,4.7c0.1-0.6,0.3-1.1,0.7-1.5c0.4-0.4,0.9-0.6,1.6-0.6h12
	c1.1,0,1.9,0.6,2.2,1.8l17,47.3c2.8-7.9,5.7-15.8,8.6-23.6c2.9-7.9,5.7-15.7,8.5-23.6c0.4-1.2,1.2-1.8,2.2-1.8h12.1
	c0.6,0,1.2,0.2,1.6,0.6s0.6,0.9,0.6,1.5c1.2,11.2,2.4,22.4,3.6,33.6c1.2,11.1,2.4,22.3,3.7,33.5V72c0,1.3-0.7,2-2.1,2h-9.3
	c-1.4,0-2.2-0.7-2.3-2.1l-4.9-45.4l-16,44.2c-0.2,0.4-0.4,0.9-0.8,1.2c-0.4,0.4-0.7,0.6-1.1,0.6h-8.6c-0.4,0-0.8-0.2-1.2-0.6
	c-0.3-0.4-0.6-0.8-0.8-1.3c-2.6-7.4-5.3-14.7-7.9-22c-2.7-7.4-5.4-14.7-8-22.1l-4.9,45.4c0,1.4-0.7,2.1-2.2,2.1h-9.3
	c-1.4,0-2.1-0.7-2.1-2.1L418.9,4.7L418.9,4.7z M325.3,51.9c-7,4.1-16.4,6.3-26.3,6.3s-19.2-2.2-26.3-6.3c-2.7-1.5-4.9-3.3-6.6-5.1
	c-1.6,2.3-2.5,4.8-2.5,7.4c0,11,15.9,20,35.4,20s35.4-9,35.4-20c0-2.6-0.9-5.1-2.5-7.4C330.2,48.7,328,50.4,325.3,51.9L325.3,51.9z"
	/>
<path class="st1" d="M332.6,29.8c-1.8,2.2-4.3,4.2-7.3,5.9c-0.8,0.5-1.7,0.9-2.5,1.3c-0.4,0.2-0.8,0.4-1.2,0.6
	c-0.4,0.2-0.8,0.4-1.3,0.5c-6.2,2.5-13.6,3.9-21.3,3.9c-7.7,0-15.1-1.4-21.3-3.9c-0.4-0.2-0.8-0.4-1.3-0.5c-0.4-0.2-0.8-0.4-1.2-0.6
	c-0.9-0.4-1.7-0.9-2.5-1.3c-3-1.7-5.5-3.8-7.3-5.9c-1.2,2-1.8,4.1-1.8,6.3c0,2.6,0.9,5.1,2.5,7.4c0.2,0.3,0.4,0.6,0.6,0.8
	c0.2,0.3,0.4,0.5,0.7,0.8c5.8,6.5,17.8,11,31.6,11c13.8,0,25.8-4.5,31.6-11c0.2-0.3,0.4-0.5,0.7-0.8c0.2-0.3,0.4-0.6,0.6-0.8
	c1.6-2.3,2.5-4.8,2.5-7.4C334.5,34,333.8,31.8,332.6,29.8L332.6,29.8z"/>
<path class="st0" d="M299.1,0c-19.5,0-35.4,9-35.4,20c0,2.2,0.6,4.3,1.8,6.3c0.2,0.3,0.4,0.6,0.6,0.9s0.4,0.6,0.6,0.8
	c2.5,3.1,6.3,5.9,11.1,7.9c0.5,0.2,0.9,0.4,1.4,0.6c0.5,0.2,1,0.4,1.5,0.5c5.4,1.9,11.7,2.9,18.4,2.9c6.7,0,13-1.1,18.4-2.9
	c0.5-0.2,1-0.3,1.5-0.5s0.9-0.4,1.4-0.6c4.8-2,8.7-4.8,11.1-7.9c0.2-0.3,0.4-0.6,0.6-0.8c0.2-0.3,0.4-0.6,0.6-0.9
	c1.2-2,1.8-4.1,1.8-6.3C334.5,9,318.6,0,299.1,0z M317.5,23.5c-0.1,0.2-0.2,0.3-0.3,0.5c-0.1,0.2-0.2,0.3-0.3,0.5
	c-1.4,1.7-3.5,3.2-6.1,4.3c-0.3,0.1-0.5,0.2-0.8,0.3c-0.3,0.1-0.5,0.2-0.8,0.3c-2.9,1-6.4,1.6-10.1,1.6s-7.2-0.6-10.1-1.6
	c-0.3-0.1-0.5-0.2-0.8-0.3c-0.3-0.1-0.5-0.2-0.8-0.3c-2.6-1.1-4.8-2.6-6.1-4.3c-0.1-0.2-0.2-0.3-0.3-0.5c-0.1-0.2-0.2-0.3-0.3-0.5
	c-0.6-1.1-1-2.3-1-3.5c0-6.1,8.7-11,19.5-11c10.7,0,19.5,4.9,19.5,11C318.5,21.2,318.2,22.4,317.5,23.5z"/>
</svg>
