<?xml version="1.0" encoding="utf-8"?>
<!-- Generator: Adobe Illustrator 25.4.1, SVG Export Plug-In . SVG Version: 6.00 Build 0)  -->
<svg version="1.1" id="Capa_1" xmlns="http://www.w3.org/2000/svg" xmlns:xlink="http://www.w3.org/1999/xlink" x="0px" y="0px"
	 viewBox="0 0 477.2 500" style="enable-background:new 0 0 477.2 500;" xml:space="preserve">
<style type="text/css">
	.st0{fill:#196889;}
	.st1{fill:#1B1B1B;}
</style>
<path class="st0" d="M415.7,349.9c-47.4,27.4-110.3,42.4-177.1,42.4S109,377.3,61.6,349.9c-17.9-10.4-32.9-22-44.6-34.7
	C6.1,330.7,0,347.5,0,365.1C0,439.5,107,500,238.6,500c131.6,0,238.6-60.5,238.6-134.9c0-17.6-6.1-34.4-17-49.9
	C448.5,327.9,433.6,339.6,415.7,349.9L415.7,349.9z"/>
<path class="st0" d="M464.9,201.1c-12.4,14.7-28.9,28.2-49.3,40c-5.5,3.1-11.1,6.1-17,8.9c-2.7,1.3-5.5,2.6-8.2,3.8
	c-2.8,1.2-5.7,2.4-8.5,3.6c-41.8,16.9-91.3,26.1-143.3,26.1c-52,0-101.5-9.2-143.3-26.1c-2.9-1.2-5.7-2.4-8.5-3.6
	c-2.8-1.2-5.5-2.5-8.2-3.8c-5.8-2.8-11.5-5.8-17-8.9c-20.4-11.8-36.9-25.3-49.3-40C4.4,214.5,0,228.8,0,243.7
	c0,17.6,6.1,34.4,17,49.8c1.4,1.9,2.8,3.8,4.3,5.7c1.4,1.8,2.9,3.5,4.4,5.2c39.4,43.9,120,74.1,213,74.1c92.9,0,173.6-30.2,213-74.1
	c1.5-1.7,3-3.4,4.4-5.2c1.5-1.8,2.9-3.7,4.3-5.7c10.9-15.4,17-32.2,17-49.8C477.2,228.8,472.9,214.5,464.9,201.1L464.9,201.1z"/>
<path class="st1" d="M238.6,0C107,0,0,60.5,0,134.9c0,14.9,4.4,29.2,12.3,42.6c1.2,2.1,2.6,4.2,3.9,6.2c1.3,1.9,2.7,3.8,4.1,5.6
	c16.6,21.2,42.6,39.5,74.9,53.3c3.1,1.3,6.2,2.6,9.3,3.8c3.3,1.3,6.6,2.5,9.9,3.6c36.2,12.5,78.7,19.7,124.1,19.7
	c45.4,0,87.9-7.2,124.1-19.7c3.3-1.2,6.6-2.4,9.9-3.6c3.1-1.2,6.2-2.5,9.3-3.8c32.4-13.8,58.3-32.1,74.9-53.3
	c1.4-1.8,2.8-3.7,4.2-5.6c1.4-2,2.7-4.1,3.9-6.2c7.9-13.4,12.3-27.7,12.3-42.6C477.2,60.5,370.2,0,238.6,0z M363,158.3
	c-0.7,1.2-1.4,2.3-2.2,3.4c-0.7,1.1-1.5,2.1-2.3,3.1c-9.1,11.6-23.4,21.7-41.2,29.3c-1.7,0.7-3.4,1.4-5.1,2.1
	c-1.8,0.7-3.6,1.4-5.4,2c-19.9,6.8-43.2,10.8-68.2,10.8c-24.9,0-48.3-4-68.2-10.8c-1.8-0.6-3.6-1.3-5.4-2c-1.7-0.7-3.4-1.4-5.1-2.1
	c-17.8-7.6-32-17.7-41.2-29.3c-0.8-1-1.5-2-2.3-3.1c-0.8-1.1-1.5-2.2-2.2-3.4c-4.4-7.4-6.8-15.2-6.8-23.4
	c0-40.9,58.8-74.1,131.1-74.1S369.7,94,369.7,134.9C369.7,143,367.3,150.9,363,158.3z"/>
</svg>
