<?xml version="1.0" encoding="utf-8"?>
<svg viewBox="64.42 122.058 396.375 419.229" xmlns="http://www.w3.org/2000/svg">
  <path d="M 460.795 191.953 L 446.482 416.524 L 309.636 122.058 L 460.795 191.953 Z M 366.011 482.335 L 262.608 541.287 L 159.205 482.335 L 165.05 447.976 L 360.172 447.976 L 366.011 482.335 Z M 78.587 416.524 L 64.42 191.953 L 215.58 122.058 L 78.587 416.524 Z" style="fill: rgb(131, 20, 158);" transform="matrix(1, 0, 0, 1, 0, -2.842170943040401e-14)"/>
  <path fill-rule="evenodd" d="M 359.687 303.803 L 359.674 303.903 C 353.622 339.165 330.218 361.457 289.462 370.78 C 299.542 377.844 311.312 379.758 324.938 376.556 C 299.493 385.991 277.045 386.341 257.533 377.687 C 260.965 389.838 269.015 398.603 281.806 404.114 C 250.103 397.306 229.314 375.354 219.484 338.275 C 214.466 344.899 214.846 355.943 220.602 371.59 C 203.436 350.81 200.235 328.965 211.066 306.108 C 222.419 280.987 243.041 270.921 272.943 275.916 C 313.534 320.452 339.703 333.457 351.331 314.88 C 356.419 298.991 351.188 279.444 335.607 256.311 C 324.418 240.507 311.242 229.423 296.187 223.234 C 293.105 214.485 287.622 208.359 279.928 205.153 C 274.568 202.654 269.612 202.166 265.272 203.932 C 264.566 204.222 263.864 204.518 263.164 204.82 C 256.255 207.778 244.778 212.692 231.997 207.839 C 222.54 204.248 215.902 206.55 212.084 214.745 C 208.322 223.149 205.802 227.713 204.524 228.436 C 202.579 229.951 198.443 231.531 192.15 233.154 C 185.858 234.777 181.911 237.281 180.31 240.666 C 177.357 247.841 176.287 253.63 177.1 258.035 C 175.683 263.5 173.403 267.19 170.265 269.02 C 169.577 269.419 168.883 269.81 168.185 270.192 C 164.897 272.005 163.252 272.912 162.427 276.785 L 162.36 277.1 C 161.427 281.462 161.119 282.905 165.607 297.447 C 162.677 319.017 166.234 339.794 176.276 359.694 C 176.264 359.67 190.316 394.769 228.978 413.066 C 269.929 429.998 306.389 423.996 338.359 395.059 C 319.418 398.877 305.478 399.141 296.603 395.904 C 330.36 393.441 352.449 376.981 362.992 346.544 C 348.954 357.384 338.083 363.704 330.454 365.405 C 343.524 357.077 352.464 347.473 357.341 336.667 C 362.217 325.861 362.999 314.906 359.687 303.803 Z M 308.158 259.028 C 305.075 263.01 300.976 272.277 309.25 277.491 C 317.524 282.705 313.838 276.178 310.96 272.263 C 308.083 268.348 308.158 259.028 308.158 259.028 Z" clip-rule="evenodd" style="fill: rgb(131, 20, 158);" transform="matrix(1, 0, 0, 1, 0, -2.842170943040401e-14)"/>
</svg>