<?xml version="1.0" encoding="utf-8"?>
<!-- Generator: Adobe Illustrator 27.0.0, SVG Export Plug-In . SVG Version: 6.00 Build 0)  -->
<svg version="1.1" id="Layer_1" xmlns="http://www.w3.org/2000/svg" xmlns:xlink="http://www.w3.org/1999/xlink" x="0px" y="0px"
	 viewBox="0 0 885 936" style="enable-background:new 0 0 885 936;" xml:space="preserve">
<style type="text/css">
	.st0{fill:url(#SVGID_1_);}
	.st1{fill-rule:evenodd;clip-rule:evenodd;fill:url(#SVGID_00000080204191245734918910000008765453392186564283_);}
</style>
<radialGradient id="SVGID_1_" cx="136.858" cy="863.7133" r="1.0005" gradientTransform="matrix(0 507.226 479.575 0 -413772.8125 -68990.0312)" gradientUnits="userSpaceOnUse">
	<stop  offset="0" style="stop-color:#575757"/>
	<stop  offset="1" style="stop-color:#343434"/>
</radialGradient>
<path class="st0" d="M884.7,156.3l-31.9,501L547.4,0.3L884.7,156.3L884.7,156.3z M673.2,804.1L442.5,935.7L211.8,804.1l13-76.7
	h435.3L673.2,804.1z M31.9,657.3l-31.6-501L337.6,0.3L31.9,657.3z"/>
<radialGradient id="SVGID_00000023988221495726128890000010110237042961908408_" cx="136.5592" cy="864.01" r="1" gradientTransform="matrix(314.0004 156.9999 140.1033 -280.2072 -163488.2812 221116.5312)" gradientUnits="userSpaceOnUse">
	<stop  offset="0.271" style="stop-color:#5A5A5A"/>
	<stop  offset="1" style="stop-color:#2E2E2E"/>
</radialGradient>
<path style="fill-rule:evenodd;clip-rule:evenodd;fill:url(#SVGID_00000023988221495726128890000010110237042961908408_);" d="
	M659.1,405.8l0,0.2c-13.5,78.7-65.7,128.4-156.6,149.2c22.5,15.8,48.7,20,79.1,12.9c-56.8,21-106.9,21.8-150.4,2.5
	c7.7,27.1,25.6,46.7,54.2,59c-70.7-15.2-117.1-64.2-139-146.9c-11.2,14.8-10.3,39.4,2.5,74.3c-38.3-46.4-45.4-95.1-21.3-146.1
	c25.3-56,71.3-78.5,138-67.4C556.1,443,614.5,472,640.4,430.5c11.3-35.4-0.3-79.1-35.1-130.7c-25-35.3-54.4-60-87.9-73.8
	c-6.9-19.5-19.1-33.2-36.3-40.3c-12-5.6-23-6.7-32.7-2.7c-1.6,0.6-3.1,1.3-4.7,2c-15.4,6.6-41,17.6-69.5,6.7
	c-21.1-8-35.9-2.9-44.4,15.4c-8.4,18.7-14,28.9-16.9,30.5c-4.3,3.4-13.6,6.9-27.6,10.5c-14,3.6-22.8,9.2-26.4,16.8
	c-6.6,16-9,28.9-7.2,38.8c-3.2,12.2-8.2,20.4-15.2,24.5c-1.5,0.9-3.1,1.8-4.6,2.6c-7.3,4-11,6.1-12.8,14.7l-0.1,0.7
	c-2.1,9.7-2.8,13,7.2,45.4c-6.5,48.1,1.4,94.5,23.8,138.9c0-0.1,31.3,78.3,117.6,119.1c91.4,37.8,172.7,24.4,244-40.2
	c-42.3,8.5-73.4,9.1-93.2,1.9c75.3-5.5,124.6-42.2,148.1-110.1c-31.3,24.2-55.6,38.3-72.6,42.1c29.2-18.6,49.1-40,60-64.1
	C664.7,455,666.5,430.6,659.1,405.8L659.1,405.8z M544.1,305.9c-6.9,8.9-16,29.6,2.4,41.2c18.5,11.6,10.2-2.9,3.8-11.7
	C544,326.7,544.1,305.9,544.1,305.9L544.1,305.9z"/>
</svg>
