<?xml version="1.0" encoding="utf-8"?>
<!-- Generator: Adobe Illustrator 25.4.1, SVG Export Plug-In . SVG Version: 6.00 Build 0)  -->
<svg version="1.1" id="Capa_1" xmlns="http://www.w3.org/2000/svg" xmlns:xlink="http://www.w3.org/1999/xlink" x="0px" y="0px"
	 viewBox="0 0 500 310.6" style="enable-background:new 0 0 500 310.6;" xml:space="preserve">
<style type="text/css">
	.st0{fill:#020203;}
</style>
<polygon class="st0" points="249.7,199.8 186.2,100.7 186.2,184 76.8,0 0,0 0,310.6 76.3,310.6 76.3,126.8 184.5,302.3 "/>
<polygon class="st0" points="186.3,79.9 262.4,79.9 262.4,0 186.3,0 "/>
<path class="st0" d="M415,184.3c-22.2-29.2-64.1-22.3-76.5,9.5C370.2,155.9,395.6,190.9,415,184.3z"/>
<path class="st0" d="M423.3,188.4c3.6,6,10.7,8.8,17.4,6.9c10.3-2.2,9.6,7.5,25.1,10.8c0.5-12.2-3.5-13.5-15.6-18.1
	c-12.1-3.7-21.3-9.1-26.8-19.7c-18.1-34.6-72.4-21-83.5,11.9C361.7,151.2,406.1,153.3,423.3,188.4z"/>
<path class="st0" d="M294.2,137.2l-32-50.4h-75.9l72.2,113l-70.4,110.8h73.7l32.1-49.3l32.6,49.3h73.7l-66.9-105.3
	c-6.6-10.8,4.5-41.4,23.2-53.3c22.2-14.2,57.8-15.4,73.9,17.9c13.2,17.2,39.5,9.7,39.5,32.1c1.1,19.7,29.5,19.1,29.5-0.9
	C497.8,86.6,355.7,45.5,294.2,137.2z"/>
<path class="st0" d="M486.3,239c0,0-6.1-2.9-2.3-8.6c4.1-6.2,12.1-5.6,15.7-13.3C501.5,227.8,495.4,242.9,486.3,239z"/>
</svg>
