<?xml version="1.0" encoding="utf-8"?>
<!-- Generator: Adobe Illustrator 27.0.0, SVG Export Plug-In . SVG Version: 6.00 Build 0)  -->
<svg version="1.1" id="Layer_1" xmlns="http://www.w3.org/2000/svg" xmlns:xlink="http://www.w3.org/1999/xlink" x="0px" y="0px"
	 viewBox="0 0 56.1 115.5" style="enable-background:new 0 0 56.1 115.5;" xml:space="preserve">
<g>
	<g>
		<path d="M17.8,8c0.6,0,1.2,0,1.6,0.1l0.1,0l0.1,0c13.3,1.1,20.2,8.4,23.7,14.2c5.9,10.1,6.2,24.4,0.8,36.3
			c-5.2,11.3-3.9,22.1,4.1,34c2.2,3.3,2.6,4.7,2.7,5.2c0.3,2.1-0.5,4-2.3,5.6c-1.7,1.6-4.3,2.8-6.9,3.3c-2.8,0.5-5.2,0.8-7.3,0.8
			c-6.6,0-12.7-2-18.1-5.9c-14.1-10.1-9.9-26.8-4-41.9c2.3-5.9,3.6-10,3.9-12.4c1.7-12.2-3.3-20.1-9.7-30.2l-0.3-0.4
			c-0.8-1.3-1-2.5-0.4-3.7l0,0l0,0C7.1,9.6,13,8,17.8,8 M17.8,5.5c-5.3,0-12.4,1.7-14.4,6.6c-0.9,2-0.7,4.1,0.6,6.1
			c6.4,10.1,11.2,17.5,9.6,28.9c-0.3,2.2-1.6,6.2-3.8,11.8c-5.9,15-10.8,33.5,4.9,44.8c5.9,4.3,12.5,6.4,19.6,6.4
			c2.5,0,5.1-0.3,7.8-0.8c5.6-1.1,12.2-5.4,11.2-11.8c-0.2-1.3-1.2-3.3-3.1-6.2c-6.8-10.2-9.2-20.1-3.9-31.6
			C56.4,37.5,48.2,8,19.8,5.6C19.2,5.5,18.5,5.5,17.8,5.5L17.8,5.5z"/>
	</g>
</g>
</svg>
