<?xml version="1.0" encoding="UTF-8"?>
<svg id="Layer_1" data-name="Layer 1" xmlns="http://www.w3.org/2000/svg" viewBox="0 0 512 512">
  <defs>
    <style>
      .cls-1 {
        fill: #00b058;
      }

      .cls-2 {
        fill: #fff;
      }

      .cls-3 {
        fill: #ef3d44;
      }

      .cls-4 {
        fill: #492f93;
        stroke: #492f93;
        stroke-miterlimit: 10;
      }
    </style>
  </defs>
  <g id="squiggle">
    <g>
      <rect class="cls-2" x="86.85" y="1.56" width="338.29" height="508.94" rx="13.5" ry="13.5"/>
      <path d="M100.36,.06V3.06H411.65c6.62,0,12,5.38,12,12V497c0,6.62-5.38,12-12,12H100.35c-6.62,0-12-5.38-12-12V15.06c0-6.62,5.38-12,12-12V.06m0,0c-8.28,0-15,6.72-15,15V497c0,8.28,6.72,15,15,15H411.64c8.28,0,15-6.72,15-15V15.07c0-8.28-6.72-15-15-15H100.36Z"/>
    </g>
    <g>
      <path class="cls-4" d="M355.64,385.77c0-10.1-3.24-23.62-12.57-27.44-3.81-1.71-7.81-1.33-11.62,1.14-19.24,12.19-33.34,21.34-55.06,18.29-4.19-.57-11.81-3.05-22.48-7.24-28.58-11.24-63.82-20.58-85.35,9.34-8.19,11.24-12.19,23.82-12.19,37.34,0,4.76,.57,9.72,1.52,14.86,2.1,10.67,10.29,23.24,22.48,21.34,2.48-.38,6.29-2.29,11.81-5.91,19.43-12.96,38.3-17.53,60.21-7.43,42.3,19.24,98.5,3.62,103.07-50.49,.19-1.14,.19-2.48,.19-3.81h0Z"/>
      <path class="cls-1" d="M360.5,258.75c0-3.43-.38-6.86-1.14-10.29-5.91-24.96-27.05-40.01-52.77-40.01h-92.97c-11.81,0-20.2,.76-25.15,2.1-24.39,6.67-36.96,27.44-36.96,48.39s11.43,39.82,34.87,47.25c5.53,1.71,14.1,2.67,25.53,2.67h88.59c12,0,20.58-.95,26.1-2.86,20-6.86,33.91-26.67,33.91-47.25h0Z"/>
      <path class="cls-3" d="M366.03,111.95c0-.38-.38-.95-1.33-1.33-30.1-14.67-60.21-29.15-90.31-43.63-5.91-2.86-11.62-5.53-17.53-8.38-.57-.19-1.14-.19-1.71,0l-107.45,51.63c-1.14,.57-1.71,1.14-1.71,1.71s.57,1.14,1.71,1.71l107.45,51.44c.57,.19,1.14,.19,1.71,0l107.84-51.63c.95-.57,1.33-.95,1.33-1.52h0Z"/>
    </g>
  </g>
</svg>
